<svg id="svg" version="1.1" xmlns="http://www.w3.org/2000/svg" xmlns:xlink="http://www.w3.org/1999/xlink" width="400" height="82.22222222222221" viewBox="0, 0, 400,82.22222222222221"><g id="svgg"><path id="path0" d="M56.038 2.708 L 56.083 5.417 58.208 5.463 L 60.333 5.510 60.333 2.755 L 60.333 0.000 58.163 0.000 L 55.992 0.000 56.038 2.708 M45.958 0.449 C 45.798 0.490,45.667 0.669,45.667 0.846 C 45.667 1.138,45.537 1.167,44.234 1.167 C 42.953 1.167,42.793 1.201,42.717 1.493 C 42.646 1.764,42.460 1.827,41.608 1.868 C 40.730 1.910,40.560 1.970,40.419 2.292 C 40.285 2.596,40.121 2.667,39.544 2.667 C 39.056 2.667,38.729 2.771,38.500 3.000 C 38.275 3.225,37.944 3.333,37.484 3.333 C 36.951 3.333,36.784 3.403,36.718 3.655 C 36.660 3.877,36.427 4.011,35.963 4.090 C 35.505 4.167,35.267 4.303,35.210 4.518 C 35.149 4.751,34.977 4.833,34.548 4.833 C 34.109 4.833,33.948 4.914,33.882 5.167 C 33.825 5.382,33.654 5.500,33.397 5.500 C 33.085 5.500,33.000 5.589,33.000 5.917 C 33.000 6.299,32.939 6.333,32.250 6.333 C 31.611 6.333,31.500 6.383,31.500 6.667 C 31.500 6.888,31.389 7.000,31.170 7.000 C 30.957 7.000,30.803 7.148,30.735 7.417 C 30.646 7.772,30.535 7.833,29.982 7.833 C 29.452 7.833,29.333 7.892,29.333 8.155 C 29.333 8.362,29.199 8.496,28.958 8.530 C 28.717 8.564,28.564 8.717,28.530 8.958 C 28.496 9.199,28.362 9.333,28.155 9.333 C 27.944 9.333,27.833 9.448,27.833 9.667 C 27.833 9.913,27.722 10.000,27.409 10.000 C 27.098 10.000,26.998 10.077,27.034 10.292 C 27.066 10.483,26.960 10.601,26.725 10.634 C 26.528 10.662,26.330 10.827,26.285 11.000 C 26.240 11.172,25.935 11.426,25.607 11.563 C 25.225 11.722,24.975 11.958,24.909 12.221 C 24.853 12.446,24.625 12.788,24.403 12.981 C 24.181 13.173,24.000 13.407,24.000 13.499 C 24.000 13.591,23.850 13.667,23.667 13.667 C 23.422 13.667,23.333 13.778,23.333 14.083 C 23.333 14.389,23.244 14.500,23.000 14.500 C 22.782 14.500,22.667 14.611,22.667 14.822 C 22.667 15.029,22.533 15.163,22.292 15.197 C 22.051 15.231,21.898 15.384,21.863 15.625 C 21.829 15.866,21.695 16.000,21.488 16.000 C 21.235 16.000,21.167 16.118,21.167 16.557 C 21.167 16.991,21.074 17.156,20.743 17.306 C 20.481 17.425,20.337 17.612,20.368 17.791 C 20.400 17.985,20.293 18.101,20.051 18.135 C 19.762 18.177,19.675 18.316,19.634 18.802 C 19.597 19.251,19.482 19.461,19.208 19.581 C 19.002 19.672,18.833 19.861,18.833 20.003 C 18.833 20.144,18.683 20.368,18.500 20.500 C 18.283 20.656,18.167 20.931,18.167 21.287 C 18.167 21.711,18.096 21.833,17.852 21.833 C 17.609 21.833,17.513 21.998,17.428 22.566 C 17.348 23.098,17.229 23.322,16.992 23.384 C 16.738 23.450,16.667 23.614,16.667 24.132 C 16.667 24.654,16.596 24.813,16.333 24.882 C 16.047 24.957,16.000 25.109,16.000 25.973 C 16.000 26.887,15.966 26.982,15.625 27.030 C 15.284 27.078,15.245 27.186,15.201 28.208 C 15.157 29.197,15.112 29.333,14.826 29.333 C 14.529 29.333,14.500 29.455,14.500 30.710 C 14.500 31.979,14.470 32.101,14.125 32.252 C 13.768 32.409,13.748 32.519,13.701 34.579 C 13.661 36.334,13.598 36.800,13.367 37.054 C 12.938 37.529,12.937 45.803,13.366 46.278 C 13.594 46.529,13.653 46.952,13.669 48.420 C 13.694 50.824,13.784 51.333,14.185 51.333 C 14.469 51.333,14.500 51.473,14.500 52.766 C 14.500 54.058,14.533 54.206,14.833 54.285 C 15.112 54.358,15.167 54.514,15.169 55.228 C 15.172 56.159,15.264 56.385,15.708 56.549 C 15.922 56.627,16.000 56.841,16.000 57.344 C 16.000 57.891,16.068 58.049,16.333 58.118 C 16.591 58.186,16.667 58.346,16.667 58.821 C 16.667 59.180,16.791 59.572,16.964 59.760 C 17.127 59.938,17.356 60.406,17.473 60.800 C 17.590 61.195,17.794 61.559,17.926 61.610 C 18.058 61.661,18.167 61.882,18.167 62.101 C 18.167 62.418,18.254 62.500,18.593 62.500 C 18.860 62.500,18.977 62.568,18.907 62.683 C 18.764 62.914,19.133 63.618,19.464 63.745 C 20.115 63.995,20.333 63.383,20.333 61.308 C 20.333 60.039,20.396 59.333,20.509 59.333 C 20.915 59.333,21.167 58.163,21.167 56.275 C 21.167 54.512,21.191 54.366,21.500 54.285 C 21.801 54.206,21.833 54.058,21.833 52.766 C 21.833 51.593,21.879 51.333,22.087 51.333 C 22.399 51.333,22.667 50.674,22.667 49.906 C 22.667 49.556,22.796 49.204,23.000 49.000 C 23.244 48.756,23.333 48.444,23.333 47.833 C 23.333 47.111,23.378 47.000,23.667 47.000 C 23.946 47.000,24.000 46.889,24.000 46.311 C 24.000 45.790,24.102 45.527,24.417 45.235 C 24.732 44.943,24.833 44.681,24.833 44.159 C 24.833 43.609,24.901 43.451,25.167 43.382 C 25.385 43.325,25.500 43.154,25.500 42.889 C 25.500 42.666,25.688 42.310,25.917 42.098 C 26.146 41.886,26.333 41.560,26.333 41.375 C 26.333 41.179,26.472 41.003,26.667 40.952 C 26.916 40.886,27.000 40.724,27.000 40.305 C 27.000 39.885,27.093 39.705,27.375 39.581 C 27.636 39.467,27.766 39.247,27.804 38.856 C 27.841 38.471,27.957 38.270,28.179 38.212 C 28.383 38.158,28.500 37.983,28.500 37.731 C 28.500 37.446,28.593 37.333,28.830 37.333 C 29.043 37.333,29.197 37.186,29.265 36.917 C 29.322 36.688,29.473 36.500,29.599 36.500 C 29.739 36.500,29.871 36.237,29.936 35.833 C 30.016 35.331,30.119 35.167,30.355 35.167 C 30.552 35.167,30.667 35.048,30.667 34.845 C 30.667 34.638,30.801 34.504,31.042 34.470 C 31.283 34.436,31.436 34.283,31.470 34.042 C 31.504 33.801,31.638 33.667,31.845 33.667 C 32.057 33.667,32.167 33.552,32.167 33.329 C 32.167 33.123,32.328 32.930,32.583 32.833 C 32.813 32.746,33.000 32.569,33.000 32.440 C 33.000 32.311,33.150 32.166,33.333 32.118 C 33.533 32.066,33.667 31.891,33.667 31.682 C 33.667 31.444,33.773 31.333,34.000 31.333 C 34.216 31.333,34.333 31.222,34.333 31.018 C 34.333 30.821,34.489 30.664,34.750 30.598 C 34.979 30.541,35.167 30.383,35.167 30.247 C 35.167 30.111,35.286 30.000,35.432 30.000 C 35.578 30.000,35.739 29.844,35.788 29.654 C 35.838 29.464,36.056 29.240,36.273 29.158 C 36.489 29.076,36.667 28.894,36.667 28.754 C 36.667 28.611,36.812 28.500,37.000 28.500 C 37.218 28.500,37.333 28.389,37.333 28.178 C 37.333 27.971,37.467 27.837,37.708 27.803 C 37.949 27.769,38.102 27.616,38.137 27.375 C 38.180 27.069,38.295 27.000,38.767 27.000 C 39.138 27.000,39.380 26.906,39.445 26.737 C 39.500 26.593,39.723 26.407,39.939 26.325 C 40.162 26.240,40.333 26.038,40.333 25.859 C 40.333 25.620,40.493 25.517,40.988 25.438 C 41.412 25.370,41.669 25.231,41.718 25.042 C 41.760 24.881,41.803 30.276,41.814 37.030 C 41.833 49.173,41.830 49.312,41.500 49.417 C 41.251 49.496,41.167 49.669,41.167 50.100 C 41.167 50.498,41.076 50.711,40.875 50.785 C 40.464 50.937,40.339 51.170,40.336 51.792 C 40.334 52.108,40.195 52.472,40.000 52.667 C 39.768 52.899,39.667 53.222,39.667 53.731 C 39.667 54.307,39.600 54.479,39.351 54.544 C 39.011 54.633,38.865 55.259,38.841 56.742 C 38.834 57.196,38.766 57.608,38.689 57.658 C 38.196 57.983,38.167 58.639,38.167 69.406 C 38.167 80.222,38.170 80.333,38.500 80.333 C 38.683 80.333,38.983 80.483,39.167 80.667 C 39.411 80.911,39.722 81.000,40.333 81.000 C 41.038 81.000,41.167 81.048,41.167 81.314 C 41.167 81.684,41.597 81.828,42.708 81.831 C 43.144 81.832,43.500 81.908,43.500 82.000 C 43.500 82.102,44.306 82.167,45.583 82.167 L 47.667 82.167 47.667 41.667 C 47.667 1.389,47.665 1.165,47.333 0.833 C 47.150 0.650,46.931 0.500,46.847 0.500 C 46.763 0.500,46.594 0.471,46.472 0.436 C 46.350 0.402,46.119 0.407,45.958 0.449 M69.333 41.500 L 69.333 80.333 70.375 80.331 C 71.735 80.328,72.167 80.203,72.167 79.814 C 72.167 79.553,72.293 79.500,72.917 79.500 C 73.556 79.500,73.667 79.451,73.667 79.167 C 73.667 78.890,73.778 78.833,74.322 78.833 C 74.819 78.833,75.002 78.757,75.078 78.517 C 75.141 78.319,75.400 78.160,75.774 78.090 C 76.165 78.016,76.399 77.867,76.455 77.656 C 76.508 77.451,76.684 77.333,76.936 77.333 C 77.213 77.333,77.333 77.239,77.333 77.021 C 77.333 76.787,77.497 76.683,77.989 76.604 C 78.441 76.532,78.677 76.397,78.750 76.166 C 78.810 75.978,79.002 75.833,79.194 75.833 C 79.391 75.833,79.567 75.695,79.618 75.500 C 79.667 75.316,79.846 75.167,80.019 75.167 C 80.243 75.167,80.333 75.047,80.333 74.750 C 80.333 74.376,80.401 74.333,80.989 74.333 C 81.498 74.333,81.668 74.259,81.750 74.000 C 81.808 73.817,81.965 73.667,82.098 73.667 C 82.231 73.667,82.426 73.479,82.530 73.250 C 82.635 73.021,82.858 72.833,83.027 72.833 C 83.222 72.833,83.333 72.713,83.333 72.500 C 83.333 72.278,83.444 72.167,83.667 72.167 C 83.883 72.167,84.000 72.056,84.000 71.851 C 84.000 71.654,84.156 71.497,84.417 71.432 C 84.686 71.364,84.833 71.210,84.833 70.997 C 84.833 70.778,84.946 70.667,85.167 70.667 C 85.383 70.667,85.500 70.556,85.500 70.351 C 85.500 70.154,85.656 69.997,85.917 69.932 C 86.175 69.867,86.333 69.709,86.333 69.516 C 86.333 69.345,86.483 69.166,86.667 69.118 C 86.850 69.070,87.000 68.892,87.000 68.722 C 87.000 68.552,87.188 68.211,87.417 67.964 C 87.646 67.717,87.833 67.399,87.833 67.257 C 87.833 67.111,87.977 67.000,88.167 67.000 C 88.411 67.000,88.500 66.889,88.500 66.583 C 88.500 66.284,88.590 66.167,88.819 66.167 C 89.059 66.167,89.164 66.007,89.247 65.516 C 89.323 65.071,89.458 64.840,89.679 64.782 C 89.859 64.735,90.000 64.554,90.000 64.368 C 90.000 64.179,90.142 64.002,90.333 63.952 C 90.597 63.883,90.667 63.724,90.667 63.194 C 90.667 62.625,90.724 62.515,91.042 62.470 C 91.353 62.426,91.425 62.297,91.468 61.708 C 91.509 61.136,91.581 61.000,91.843 61.000 C 92.108 61.000,92.167 60.882,92.167 60.351 C 92.167 59.799,92.228 59.687,92.583 59.598 C 92.950 59.506,93.000 59.404,93.000 58.747 C 93.000 58.111,93.050 58.000,93.333 58.000 C 93.632 58.000,93.667 57.889,93.667 56.928 C 93.667 55.944,93.697 55.852,94.042 55.803 C 94.378 55.756,94.422 55.643,94.466 54.726 C 94.507 53.873,94.569 53.687,94.841 53.616 C 95.132 53.540,95.167 53.380,95.167 52.099 C 95.167 50.927,95.213 50.667,95.421 50.667 C 95.852 50.667,96.000 49.898,96.000 47.656 C 96.000 45.931,96.046 45.500,96.231 45.500 C 96.814 45.500,96.915 38.367,96.333 38.215 C 96.038 38.138,96.000 37.988,96.000 36.911 C 96.000 36.242,95.954 35.575,95.899 35.430 C 95.808 35.194,94.735 35.167,85.482 35.167 L 75.167 35.167 75.167 26.250 L 75.167 17.333 81.661 17.333 C 87.984 17.333,88.160 17.325,88.333 17.000 C 88.523 16.646,88.306 16.000,87.997 16.000 C 87.911 16.000,87.793 15.813,87.735 15.583 C 87.670 15.323,87.513 15.167,87.315 15.167 C 87.111 15.167,87.000 15.049,87.000 14.833 C 87.000 14.615,86.889 14.500,86.678 14.500 C 86.471 14.500,86.337 14.366,86.303 14.125 C 86.269 13.884,86.116 13.731,85.875 13.697 C 85.634 13.663,85.500 13.529,85.500 13.322 C 85.500 13.115,85.385 13.000,85.178 13.000 C 84.971 13.000,84.837 12.866,84.803 12.625 C 84.768 12.379,84.635 12.250,84.417 12.250 C 84.198 12.250,84.065 12.121,84.030 11.875 C 83.996 11.634,83.862 11.500,83.655 11.500 C 83.440 11.500,83.333 11.385,83.333 11.151 C 83.333 10.948,83.200 10.767,83.015 10.719 C 82.841 10.673,82.660 10.493,82.614 10.318 C 82.566 10.133,82.385 10.000,82.182 10.000 C 81.944 10.000,81.833 9.894,81.833 9.667 C 81.833 9.446,81.722 9.333,81.503 9.333 C 81.290 9.333,81.136 9.186,81.068 8.917 C 81.004 8.659,80.845 8.500,80.654 8.500 C 80.484 8.500,80.265 8.350,80.167 8.167 C 80.041 7.932,79.818 7.833,79.411 7.833 C 78.906 7.833,78.833 7.781,78.833 7.417 C 78.833 7.116,78.744 7.000,78.511 7.000 C 78.334 7.000,78.142 6.850,78.083 6.667 C 78.002 6.409,77.831 6.333,77.334 6.333 C 76.794 6.333,76.681 6.273,76.637 5.960 C 76.606 5.745,76.442 5.560,76.251 5.523 C 76.068 5.488,75.739 5.319,75.520 5.147 C 75.301 4.974,74.953 4.833,74.747 4.833 C 74.520 4.833,74.340 4.709,74.290 4.518 C 74.233 4.301,73.994 4.167,73.520 4.087 C 73.129 4.021,72.833 3.878,72.833 3.755 C 72.833 3.489,72.310 3.339,71.375 3.336 C 70.779 3.334,70.667 3.281,70.667 3.000 C 70.667 2.722,70.556 2.667,70.000 2.667 L 69.333 2.667 69.333 41.500 M56.200 14.700 C 56.052 14.848,56.000 16.369,56.000 20.512 L 56.000 26.125 56.521 26.229 C 56.807 26.286,57.782 26.333,58.688 26.333 L 60.333 26.333 60.333 20.417 L 60.333 14.500 58.367 14.500 C 57.059 14.500,56.333 14.567,56.200 14.700 M56.508 35.992 C 56.375 36.076,56.206 36.108,56.133 36.063 C 55.903 35.920,55.969 47.236,56.200 47.467 C 56.333 47.600,57.059 47.667,58.367 47.667 L 60.333 47.667 60.333 41.769 L 60.333 35.872 58.542 35.856 C 57.556 35.846,56.641 35.908,56.508 35.992 M56.111 56.778 C 56.050 56.839,56.000 59.455,56.000 62.592 L 56.000 68.294 56.375 68.395 C 56.581 68.450,57.556 68.496,58.542 68.498 L 60.333 68.500 60.333 62.583 L 60.333 56.667 58.278 56.667 C 57.147 56.667,56.172 56.717,56.111 56.778 M56.357 77.643 C 56.077 77.923,56.033 78.234,56.011 80.065 L 55.985 82.167 58.164 82.167 L 60.342 82.167 60.296 79.792 L 60.250 77.417 58.464 77.369 C 56.885 77.328,56.641 77.359,56.357 77.643 " stroke="none" fill="#f46424" fill-rule="evenodd"></path><path id="path1" d="M47.749 41.500 C 47.749 63.454,47.768 72.435,47.792 61.458 C 47.815 50.481,47.815 32.519,47.792 21.542 C 47.768 10.565,47.749 19.546,47.749 41.500 M111.613 2.776 C 111.551 2.838,111.500 12.476,111.500 24.194 L 111.500 45.500 116.982 45.500 C 121.769 45.500,122.477 45.467,122.563 45.243 C 122.703 44.878,122.659 3.671,122.518 3.167 L 122.402 2.750 117.064 2.706 C 114.129 2.682,111.676 2.713,111.613 2.776 M130.885 2.875 C 130.723 3.126,130.599 42.162,130.755 44.125 L 130.863 45.500 136.348 45.500 L 141.833 45.500 141.833 33.940 L 141.833 22.380 142.250 22.459 C 142.556 22.518,142.667 22.645,142.667 22.936 C 142.667 23.222,142.760 23.333,143.000 23.333 C 143.222 23.333,143.333 23.444,143.333 23.667 C 143.333 23.913,143.444 24.000,143.760 24.000 C 144.067 24.000,144.179 24.082,144.158 24.292 C 144.071 25.142,144.173 25.500,144.500 25.500 C 144.724 25.500,144.833 25.611,144.833 25.837 C 144.833 26.044,144.995 26.236,145.250 26.333 C 145.479 26.420,145.667 26.606,145.667 26.746 C 145.667 26.889,145.812 27.000,146.000 27.000 C 146.304 27.000,146.458 27.527,146.354 28.205 C 146.344 28.273,146.522 28.374,146.751 28.432 C 147.011 28.497,147.167 28.654,147.167 28.851 C 147.167 29.056,147.284 29.167,147.500 29.167 C 147.744 29.167,147.833 29.278,147.833 29.583 C 147.833 29.889,147.922 30.000,148.167 30.000 C 148.408 30.000,148.500 30.111,148.500 30.403 C 148.500 31.024,148.672 31.333,149.018 31.333 C 149.243 31.333,149.333 31.452,149.333 31.750 C 149.333 32.051,149.423 32.167,149.655 32.167 C 149.862 32.167,149.996 32.301,150.030 32.542 C 150.065 32.784,150.217 32.936,150.463 32.971 C 150.672 33.000,150.831 33.113,150.818 33.221 C 150.742 33.837,150.863 34.206,151.167 34.285 C 151.353 34.334,151.500 34.512,151.500 34.690 C 151.500 34.879,151.676 35.075,151.934 35.173 C 152.218 35.281,152.334 35.423,152.272 35.586 C 152.204 35.763,152.292 35.833,152.579 35.833 C 152.922 35.833,152.987 35.923,153.032 36.458 C 153.070 36.917,153.183 37.127,153.457 37.247 C 153.662 37.337,153.812 37.524,153.790 37.662 C 153.768 37.801,153.919 37.988,154.125 38.080 C 154.331 38.171,154.500 38.378,154.500 38.540 C 154.500 38.722,154.626 38.833,154.833 38.833 C 155.059 38.833,155.167 38.944,155.167 39.178 C 155.167 39.662,155.467 40.167,155.756 40.167 C 155.903 40.167,156.000 40.327,156.000 40.572 C 156.000 40.831,156.120 41.016,156.333 41.083 C 156.517 41.142,156.667 41.334,156.667 41.511 C 156.667 41.746,156.783 41.833,157.093 41.833 C 157.328 41.833,157.484 41.890,157.441 41.960 C 157.325 42.148,157.790 43.167,157.992 43.167 C 158.088 43.167,158.167 43.354,158.167 43.583 C 158.167 43.919,158.249 44.000,158.594 44.000 C 158.941 44.000,159.011 44.070,158.969 44.375 C 158.930 44.657,159.010 44.763,159.292 44.803 C 159.533 44.837,159.667 44.971,159.667 45.178 C 159.667 45.490,159.844 45.500,165.167 45.500 L 170.667 45.500 170.667 24.081 L 170.667 2.662 165.208 2.706 C 160.990 2.740,159.745 2.797,159.729 2.958 C 159.718 3.073,159.699 8.556,159.688 15.144 L 159.667 27.120 159.265 27.044 C 158.967 26.987,158.838 26.825,158.761 26.416 C 158.704 26.113,158.553 25.825,158.425 25.776 C 158.297 25.727,158.168 25.514,158.138 25.302 C 158.103 25.055,157.953 24.898,157.719 24.865 C 157.491 24.832,157.334 24.675,157.302 24.448 C 157.268 24.207,157.151 24.100,156.958 24.132 C 156.756 24.166,156.667 24.072,156.667 23.823 C 156.667 23.626,156.479 23.242,156.250 22.970 C 156.021 22.697,155.833 22.330,155.833 22.154 C 155.833 21.944,155.718 21.833,155.500 21.833 C 155.278 21.833,155.167 21.722,155.167 21.500 C 155.167 21.278,155.056 21.167,154.833 21.167 C 154.618 21.167,154.500 21.056,154.500 20.853 C 154.500 20.680,154.313 20.415,154.083 20.265 C 153.797 20.078,153.667 19.841,153.667 19.507 C 153.667 19.178,153.565 18.990,153.351 18.922 C 153.178 18.867,152.997 18.675,152.950 18.494 C 152.899 18.300,152.722 18.167,152.516 18.167 C 152.278 18.167,152.167 18.061,152.167 17.833 C 152.167 17.611,152.056 17.500,151.833 17.500 C 151.576 17.500,151.500 17.389,151.500 17.014 C 151.500 16.310,151.341 16.000,150.982 16.000 C 150.757 16.000,150.667 15.881,150.667 15.583 C 150.667 15.278,150.578 15.167,150.333 15.167 C 150.111 15.167,150.000 15.056,150.000 14.833 C 150.000 14.619,149.889 14.500,149.688 14.500 C 149.452 14.500,149.349 14.334,149.267 13.817 C 149.189 13.331,149.062 13.108,148.829 13.047 C 148.641 12.998,148.500 12.819,148.500 12.632 C 148.500 12.448,148.360 12.265,148.182 12.219 C 148.007 12.173,147.827 11.993,147.781 11.818 C 147.733 11.633,147.552 11.500,147.349 11.500 C 147.061 11.500,147.000 11.398,147.000 10.911 C 147.000 10.529,146.908 10.288,146.737 10.222 C 146.593 10.167,146.407 9.944,146.325 9.727 C 146.235 9.492,146.039 9.333,145.837 9.333 C 145.589 9.333,145.500 9.224,145.500 8.917 C 145.500 8.619,145.410 8.500,145.185 8.500 C 144.956 8.500,144.840 8.337,144.758 7.898 C 144.683 7.502,144.534 7.268,144.322 7.212 C 144.117 7.158,144.000 6.983,144.000 6.731 C 144.000 6.449,143.906 6.333,143.678 6.333 C 143.471 6.333,143.337 6.199,143.303 5.958 C 143.274 5.752,143.141 5.583,143.008 5.583 C 142.874 5.583,142.724 5.416,142.674 5.212 C 142.624 5.008,142.433 4.670,142.250 4.462 C 142.067 4.254,141.873 3.933,141.819 3.750 C 141.765 3.567,141.632 3.436,141.524 3.459 C 141.416 3.483,141.241 3.314,141.137 3.084 L 140.946 2.667 135.983 2.667 C 132.195 2.667,130.988 2.716,130.885 2.875 M176.000 7.416 L 176.000 12.167 181.917 12.167 L 187.833 12.167 187.833 28.833 L 187.833 45.500 193.000 45.500 L 198.167 45.500 198.167 28.833 L 198.167 12.167 204.086 12.167 L 210.005 12.167 209.961 7.458 L 209.917 2.750 192.958 2.708 L 176.000 2.665 176.000 7.416 M215.168 24.083 L 215.164 45.500 220.332 45.500 L 225.500 45.500 225.500 38.833 L 225.500 32.167 228.080 32.167 L 230.660 32.167 230.765 32.583 C 230.830 32.844,230.987 33.000,231.185 33.000 C 231.434 33.000,231.500 33.122,231.500 33.587 C 231.500 34.064,231.580 34.206,231.924 34.336 C 232.194 34.439,232.331 34.604,232.299 34.790 C 232.266 34.987,232.374 35.101,232.625 35.137 C 232.928 35.180,233.000 35.296,233.000 35.742 C 233.000 36.152,233.111 36.368,233.430 36.577 C 233.682 36.742,233.822 36.956,233.768 37.096 C 233.705 37.262,233.801 37.333,234.089 37.333 C 234.413 37.333,234.500 37.419,234.500 37.736 C 234.500 38.312,234.666 38.667,234.934 38.667 C 235.071 38.667,235.167 38.838,235.167 39.080 C 235.167 39.382,235.279 39.522,235.583 39.598 C 235.813 39.656,236.000 39.814,236.000 39.950 C 236.000 40.085,236.151 40.321,236.335 40.473 C 236.519 40.625,236.686 40.968,236.706 41.234 C 236.729 41.532,236.855 41.747,237.033 41.794 C 237.192 41.835,237.367 42.011,237.422 42.185 C 237.477 42.358,237.663 42.500,237.835 42.500 C 238.084 42.500,238.158 42.645,238.199 43.208 C 238.242 43.802,238.312 43.925,238.633 43.971 C 238.919 44.011,239.004 44.118,238.967 44.388 C 238.930 44.656,239.014 44.764,239.292 44.803 C 239.533 44.837,239.667 44.971,239.667 45.178 C 239.667 45.490,239.853 45.500,245.917 45.500 L 252.167 45.500 252.167 44.417 C 252.167 43.457,252.130 43.333,251.845 43.333 C 251.638 43.333,251.504 43.199,251.470 42.958 C 251.441 42.752,251.364 42.621,251.299 42.667 C 251.099 42.808,250.678 42.108,250.672 41.625 C 250.668 41.280,250.585 41.167,250.333 41.167 C 250.089 41.167,250.000 41.056,250.000 40.750 C 250.000 40.451,249.910 40.333,249.681 40.333 C 249.441 40.333,249.336 40.174,249.253 39.683 C 249.177 39.237,249.042 39.006,248.821 38.949 C 248.633 38.899,248.500 38.720,248.500 38.516 C 248.500 38.278,248.394 38.167,248.167 38.167 C 247.944 38.167,247.833 38.056,247.833 37.833 C 247.833 37.650,247.754 37.500,247.657 37.500 C 247.560 37.500,247.525 37.427,247.580 37.339 C 247.635 37.250,247.527 37.082,247.340 36.965 C 247.153 36.849,247.000 36.584,247.000 36.377 C 247.000 36.111,246.902 36.000,246.667 36.000 C 246.422 36.000,246.333 35.889,246.333 35.583 C 246.333 35.253,246.249 35.167,245.926 35.167 C 245.566 35.167,245.513 35.084,245.468 34.458 C 245.428 33.903,245.354 33.755,245.125 33.773 C 244.922 33.789,244.833 33.675,244.833 33.398 C 244.833 33.085,244.745 33.000,244.417 33.000 C 244.043 33.000,244.000 32.933,244.000 32.345 C 244.000 31.836,243.926 31.666,243.667 31.583 C 243.483 31.525,243.333 31.339,243.333 31.169 C 243.333 31.000,243.240 30.823,243.125 30.777 C 242.958 30.710,242.958 30.690,243.125 30.680 C 243.240 30.673,243.333 30.521,243.333 30.343 C 243.333 30.090,243.469 30.009,243.958 29.968 C 244.418 29.930,244.627 29.817,244.748 29.542 C 244.838 29.335,245.045 29.167,245.206 29.167 C 245.389 29.167,245.500 29.041,245.500 28.833 C 245.500 28.589,245.611 28.500,245.917 28.500 C 246.222 28.500,246.333 28.411,246.333 28.167 C 246.333 27.944,246.444 27.833,246.667 27.833 C 246.909 27.833,247.000 27.722,247.000 27.428 C 247.000 27.136,247.104 27.008,247.373 26.970 C 247.587 26.939,247.773 26.776,247.809 26.587 C 247.844 26.406,247.980 26.180,248.111 26.084 C 248.243 25.987,248.403 25.536,248.468 25.079 C 248.557 24.444,248.672 24.212,248.959 24.085 C 249.287 23.941,249.333 23.798,249.333 22.917 C 249.333 22.094,249.393 21.876,249.667 21.705 C 249.986 21.506,250.000 21.317,250.000 17.316 C 250.000 13.276,249.989 13.133,249.667 13.048 C 249.332 12.961,249.260 12.654,249.330 11.610 C 249.370 11.018,249.028 10.167,248.751 10.167 C 248.636 10.167,248.495 9.870,248.437 9.508 C 248.379 9.146,248.228 8.789,248.101 8.716 C 247.974 8.643,247.843 8.433,247.809 8.250 C 247.773 8.057,247.590 7.894,247.373 7.863 C 247.104 7.825,247.000 7.698,247.000 7.405 C 247.000 7.111,246.909 7.000,246.667 7.000 C 246.444 7.000,246.333 6.889,246.333 6.667 C 246.333 6.425,246.222 6.333,245.928 6.333 C 245.635 6.333,245.508 6.230,245.470 5.958 C 245.424 5.636,245.317 5.584,244.708 5.585 C 244.083 5.587,244.000 5.543,244.000 5.210 C 244.000 4.882,243.915 4.833,243.333 4.833 C 242.847 4.833,242.667 4.765,242.667 4.579 C 242.667 4.273,241.907 3.954,241.492 4.086 C 241.036 4.231,240.374 4.006,240.288 3.676 C 240.219 3.412,239.949 3.378,237.730 3.352 C 235.471 3.325,235.230 3.293,235.021 2.995 C 234.798 2.675,234.551 2.667,224.982 2.667 L 215.172 2.667 215.168 24.083 M270.333 3.000 C 270.099 3.235,270.000 3.556,270.000 4.083 C 270.000 4.722,269.951 4.833,269.667 4.833 C 269.383 4.833,269.333 4.944,269.333 5.572 C 269.333 6.209,269.282 6.317,268.961 6.363 C 268.658 6.407,268.580 6.539,268.539 7.076 C 268.509 7.466,268.355 7.860,268.161 8.041 C 267.922 8.264,267.833 8.565,267.833 9.155 C 267.833 9.863,267.785 9.976,267.445 10.061 C 267.124 10.142,267.060 10.262,267.076 10.750 C 267.091 11.196,267.002 11.403,266.714 11.591 C 266.455 11.762,266.333 12.004,266.333 12.352 C 266.333 12.663,266.201 12.971,265.996 13.140 C 265.769 13.326,265.630 13.688,265.574 14.243 C 265.495 15.028,265.259 15.410,264.966 15.229 C 264.893 15.184,264.833 15.489,264.833 15.907 C 264.833 16.556,264.785 16.667,264.500 16.667 C 264.166 16.667,264.073 16.988,264.126 17.962 C 264.138 18.170,264.092 18.307,264.024 18.265 C 263.633 18.023,263.369 18.586,263.346 19.708 C 263.336 20.218,263.272 20.333,263.000 20.333 C 262.716 20.333,262.667 20.444,262.667 21.083 C 262.667 21.496,262.592 21.843,262.500 21.854 C 262.408 21.866,262.243 21.884,262.133 21.896 C 262.023 21.907,261.906 22.217,261.872 22.583 C 261.839 22.952,261.687 23.346,261.531 23.466 C 261.223 23.703,261.214 23.739,261.186 24.853 C 261.169 25.540,261.126 25.621,260.793 25.603 C 260.475 25.586,260.419 25.670,260.412 26.167 C 260.405 26.806,260.221 27.220,260.006 27.087 C 259.826 26.976,259.667 27.405,259.667 28.002 C 259.667 28.331,259.564 28.510,259.333 28.583 C 258.998 28.690,258.970 28.798,258.939 30.129 C 258.925 30.743,258.877 30.835,258.586 30.796 C 258.302 30.757,258.242 30.857,258.200 31.441 C 258.163 31.939,258.066 32.154,257.850 32.211 C 257.521 32.297,257.278 33.150,257.448 33.623 C 257.506 33.785,257.494 33.863,257.421 33.798 C 257.049 33.461,256.667 34.025,256.667 34.911 C 256.667 35.664,256.612 35.828,256.333 35.917 C 256.065 36.002,256.000 36.169,256.000 36.771 C 256.000 37.183,255.932 37.478,255.848 37.426 C 255.522 37.224,255.233 37.536,255.197 38.130 C 255.176 38.477,255.031 38.860,254.867 39.000 C 254.690 39.151,254.553 39.541,254.522 39.985 C 254.473 40.686,254.206 41.167,253.867 41.167 C 253.781 41.167,253.716 41.448,253.724 41.792 C 253.736 42.284,253.661 42.451,253.370 42.581 C 253.076 42.712,253.000 42.884,253.000 43.416 C 253.000 43.906,252.910 44.143,252.667 44.295 C 252.230 44.567,252.244 44.919,252.704 45.241 C 253.021 45.463,253.862 45.500,258.537 45.500 L 264.000 45.500 264.000 44.750 C 264.000 44.061,264.034 44.000,264.417 44.000 C 264.799 44.000,264.833 43.939,264.833 43.250 C 264.833 42.611,264.883 42.500,265.167 42.500 C 265.444 42.500,265.500 42.389,265.500 41.841 C 265.500 41.360,265.613 41.069,265.917 40.765 C 266.239 40.443,266.333 40.177,266.333 39.591 C 266.333 38.944,266.382 38.833,266.667 38.833 C 266.951 38.833,267.000 38.722,267.000 38.083 C 267.000 37.460,267.053 37.333,267.314 37.333 C 267.488 37.333,267.667 37.184,267.715 37.000 C 267.843 36.511,283.548 36.470,283.466 36.958 C 283.433 37.155,283.542 37.268,283.800 37.304 C 284.040 37.338,284.173 37.463,284.156 37.638 C 284.073 38.480,284.174 38.833,284.500 38.833 C 284.784 38.833,284.833 38.944,284.833 39.583 C 284.833 40.113,284.932 40.432,285.169 40.669 C 285.459 40.959,285.559 41.298,285.648 42.292 C 285.658 42.406,285.817 42.500,286.000 42.500 C 286.283 42.500,286.333 42.611,286.333 43.238 C 286.333 43.877,286.384 43.984,286.708 44.030 C 287.035 44.076,287.080 44.176,287.060 44.792 L 287.037 45.500 292.653 45.500 C 298.801 45.500,298.988 45.473,298.771 44.609 C 298.710 44.366,298.549 44.167,298.413 44.167 C 298.233 44.167,298.167 43.970,298.167 43.435 C 298.167 42.793,298.115 42.690,297.750 42.598 C 297.398 42.510,297.333 42.396,297.333 41.870 C 297.333 41.427,297.237 41.187,297.000 41.039 C 296.741 40.877,296.667 40.650,296.667 40.019 C 296.667 39.393,296.590 39.155,296.332 38.979 C 296.148 38.853,295.971 38.517,295.940 38.232 C 295.866 37.560,295.690 37.289,295.400 37.400 C 295.222 37.468,295.167 37.315,295.167 36.751 C 295.167 36.182,295.090 35.971,294.833 35.833 C 294.646 35.733,294.500 35.484,294.500 35.265 C 294.500 34.463,294.288 33.841,293.980 33.744 C 293.742 33.668,293.667 33.484,293.667 32.973 C 293.667 32.448,293.596 32.284,293.342 32.217 C 293.098 32.153,293.005 31.961,292.967 31.441 C 292.923 30.832,292.872 30.756,292.542 30.802 C 292.186 30.852,292.167 30.799,292.167 29.772 C 292.167 28.846,292.120 28.674,291.843 28.586 C 291.602 28.510,291.505 28.303,291.468 27.783 C 291.438 27.376,291.329 27.075,291.208 27.063 C 291.094 27.051,290.925 27.032,290.833 27.021 C 290.742 27.009,290.667 26.667,290.667 26.260 C 290.667 25.609,290.626 25.527,290.333 25.583 C 290.033 25.641,290.000 25.558,290.000 24.740 C 290.000 24.046,289.919 23.753,289.656 23.489 C 289.354 23.188,289.265 22.914,289.186 22.042 C 289.175 21.927,289.110 21.842,289.042 21.853 C 288.600 21.923,288.500 21.781,288.500 21.083 C 288.500 20.444,288.451 20.333,288.167 20.333 C 287.893 20.333,287.833 20.221,287.831 19.708 C 287.828 18.798,287.673 18.358,287.315 18.244 C 287.075 18.168,287.000 17.985,287.000 17.473 C 287.000 16.948,286.929 16.784,286.675 16.717 C 286.431 16.653,286.338 16.461,286.300 15.941 C 286.259 15.370,286.185 15.241,285.875 15.197 C 285.539 15.149,285.500 15.050,285.500 14.248 C 285.500 13.552,285.428 13.302,285.179 13.127 C 284.976 12.985,284.838 12.660,284.804 12.243 C 284.760 11.706,284.680 11.573,284.375 11.530 C 284.057 11.485,284.000 11.375,284.000 10.806 C 284.000 10.289,283.928 10.117,283.686 10.053 C 283.440 9.989,283.356 9.775,283.297 9.066 C 283.248 8.471,283.124 8.089,282.937 7.952 C 282.690 7.772,282.605 7.485,282.519 6.542 C 282.509 6.427,282.350 6.333,282.167 6.333 C 281.883 6.333,281.833 6.222,281.833 5.583 C 281.833 4.961,281.780 4.833,281.521 4.833 C 281.269 4.833,281.194 4.675,281.130 4.006 C 280.994 2.598,281.275 2.667,275.646 2.667 C 270.889 2.667,270.652 2.682,270.333 3.000 M301.949 2.773 C 301.888 2.834,301.837 12.473,301.835 24.192 L 301.831 45.500 306.999 45.500 L 312.167 45.500 312.180 33.458 C 312.187 26.835,312.231 21.510,312.277 21.625 C 312.323 21.740,312.505 21.833,312.681 21.833 C 312.889 21.833,313.000 21.949,313.000 22.167 C 313.000 22.410,313.111 22.500,313.411 22.500 C 313.717 22.500,313.797 22.568,313.723 22.761 C 313.601 23.078,313.978 23.833,314.257 23.833 C 314.368 23.833,314.503 24.058,314.558 24.333 C 314.617 24.627,314.763 24.833,314.912 24.833 C 315.056 24.833,315.167 24.979,315.167 25.167 C 315.167 25.411,315.278 25.500,315.583 25.500 C 315.909 25.500,316.000 25.585,316.000 25.891 C 316.000 26.106,316.150 26.417,316.333 26.583 C 316.517 26.749,316.667 27.053,316.667 27.258 C 316.667 27.516,316.794 27.663,317.083 27.735 C 317.352 27.803,317.500 27.957,317.500 28.170 C 317.500 28.389,317.612 28.500,317.833 28.500 C 318.027 28.500,318.167 28.611,318.167 28.765 C 318.167 28.911,318.321 29.155,318.509 29.307 C 318.819 29.558,318.952 29.877,318.987 30.458 C 318.994 30.573,319.150 30.667,319.333 30.667 C 319.561 30.667,319.667 30.778,319.667 31.016 C 319.667 31.224,319.801 31.400,320.000 31.452 C 320.183 31.500,320.333 31.634,320.333 31.750 C 320.333 31.867,320.521 32.085,320.750 32.235 C 321.045 32.428,321.167 32.657,321.167 33.019 C 321.167 33.391,321.258 33.555,321.500 33.618 C 321.683 33.666,321.833 33.839,321.833 34.002 C 321.833 34.314,322.258 34.566,322.515 34.407 C 322.598 34.356,322.667 34.506,322.667 34.740 C 322.667 35.056,322.754 35.167,323.000 35.167 C 323.316 35.167,323.429 35.482,323.346 36.125 C 323.331 36.240,323.509 36.421,323.743 36.527 C 323.976 36.633,324.167 36.858,324.167 37.027 C 324.167 37.222,324.287 37.333,324.500 37.333 C 324.744 37.333,324.833 37.444,324.833 37.750 C 324.833 38.049,324.923 38.167,325.152 38.167 C 325.394 38.167,325.498 38.327,325.583 38.833 C 325.669 39.339,325.773 39.500,326.015 39.500 C 326.243 39.500,326.333 39.617,326.333 39.917 C 326.333 40.221,326.422 40.333,326.663 40.333 C 326.876 40.333,327.031 40.481,327.098 40.749 C 327.155 40.977,327.254 41.132,327.317 41.093 C 327.572 40.936,327.855 41.314,327.870 41.830 C 327.880 42.208,327.978 42.402,328.183 42.456 C 328.347 42.499,328.504 42.695,328.532 42.892 C 328.564 43.116,328.724 43.270,328.958 43.303 C 329.199 43.337,329.333 43.471,329.333 43.678 C 329.333 43.889,329.448 44.000,329.667 44.000 C 329.868 44.000,330.005 44.115,330.013 44.292 C 330.067 45.530,329.893 45.495,335.876 45.497 L 341.168 45.500 341.126 24.125 L 341.083 2.750 336.094 2.706 C 333.350 2.681,331.042 2.725,330.965 2.801 C 330.888 2.878,330.815 8.673,330.802 15.679 C 330.790 22.685,330.749 28.127,330.712 27.773 C 330.663 27.311,330.553 27.106,330.322 27.045 C 330.145 26.999,330.000 26.820,330.000 26.647 C 330.000 26.444,329.882 26.333,329.667 26.333 C 329.472 26.333,329.333 26.222,329.333 26.066 C 329.333 25.918,329.146 25.650,328.917 25.470 C 328.669 25.275,328.500 24.972,328.500 24.722 C 328.500 24.446,328.389 24.273,328.176 24.217 C 327.998 24.171,327.829 23.972,327.801 23.775 C 327.769 23.551,327.610 23.397,327.375 23.363 C 327.144 23.331,327.000 23.194,327.000 23.008 C 327.000 22.842,326.861 22.669,326.692 22.625 C 326.480 22.570,326.348 22.327,326.273 21.855 C 326.187 21.316,326.091 21.167,325.831 21.167 C 325.589 21.167,325.500 21.055,325.500 20.750 C 325.500 20.444,325.411 20.333,325.167 20.333 C 324.944 20.333,324.833 20.222,324.833 20.000 C 324.833 19.756,324.722 19.667,324.417 19.667 C 324.043 19.667,324.000 19.599,324.000 19.011 C 324.000 18.502,323.926 18.332,323.667 18.250 C 323.483 18.192,323.333 18.011,323.333 17.849 C 323.333 17.686,323.145 17.468,322.916 17.363 C 322.686 17.259,322.517 17.080,322.541 16.965 C 322.564 16.851,322.415 16.732,322.208 16.701 C 321.942 16.660,321.833 16.530,321.833 16.252 C 321.833 15.700,321.667 15.333,321.417 15.333 C 321.299 15.333,321.156 15.146,321.098 14.917 C 321.031 14.648,320.877 14.500,320.663 14.500 C 320.422 14.500,320.333 14.388,320.333 14.083 C 320.333 13.786,320.243 13.667,320.019 13.667 C 319.789 13.667,319.673 13.504,319.591 13.065 C 319.517 12.669,319.368 12.434,319.156 12.379 C 318.951 12.325,318.833 12.150,318.833 11.897 C 318.833 11.611,318.740 11.500,318.500 11.500 C 318.278 11.500,318.167 11.389,318.167 11.167 C 318.167 10.849,318.006 10.761,317.542 10.821 C 317.415 10.837,317.333 10.649,317.333 10.339 C 317.333 10.036,317.198 9.714,317.000 9.545 C 316.817 9.388,316.667 9.119,316.667 8.947 C 316.667 8.776,316.524 8.598,316.349 8.552 C 316.174 8.507,315.993 8.326,315.948 8.151 C 315.899 7.966,315.719 7.833,315.516 7.833 C 315.259 7.833,315.167 7.728,315.167 7.436 C 315.167 7.189,315.049 7.008,314.856 6.958 C 314.657 6.906,314.505 6.662,314.433 6.281 C 314.362 5.898,314.205 5.648,313.994 5.581 C 313.814 5.524,313.667 5.333,313.667 5.155 C 313.667 4.944,313.552 4.833,313.333 4.833 C 313.111 4.833,313.000 4.722,313.000 4.500 C 313.000 4.185,312.841 4.095,312.385 4.152 C 312.265 4.167,312.166 3.894,312.135 3.463 L 312.083 2.750 307.072 2.706 C 304.316 2.682,302.010 2.712,301.949 2.773 M346.664 3.003 C 346.342 3.325,346.330 3.518,346.372 7.711 L 346.417 12.083 352.292 12.127 L 358.167 12.171 358.167 28.835 L 358.167 45.500 363.663 45.500 L 369.160 45.500 369.259 45.106 C 369.314 44.889,369.344 44.608,369.326 44.481 C 369.308 44.354,369.303 37.031,369.314 28.208 L 369.333 12.167 374.833 12.167 L 380.333 12.167 380.333 7.417 L 380.333 2.667 363.667 2.667 C 347.177 2.667,346.996 2.670,346.664 3.003 M235.197 12.542 C 235.244 12.874,235.359 12.922,236.207 12.967 C 236.953 13.006,237.202 13.088,237.338 13.342 C 237.433 13.520,237.659 13.667,237.839 13.667 C 238.091 13.667,238.167 13.781,238.167 14.160 C 238.167 14.445,238.313 14.790,238.513 14.976 C 238.855 15.295,239.139 20.106,238.803 19.898 C 238.640 19.797,238.167 20.520,238.167 20.870 C 238.167 21.056,238.042 21.167,237.833 21.167 C 237.611 21.167,237.500 21.278,237.500 21.500 C 237.500 21.744,237.389 21.833,237.083 21.833 C 236.758 21.833,236.667 21.919,236.667 22.222 C 236.667 22.580,236.598 22.610,235.792 22.605 C 234.031 22.594,233.323 22.707,233.152 23.027 C 233.001 23.310,232.706 23.333,229.244 23.333 L 225.500 23.333 225.500 17.750 L 225.500 12.167 230.322 12.167 L 235.143 12.167 235.197 12.542 M276.000 18.864 C 276.000 19.326,276.110 19.679,276.325 19.907 C 276.522 20.117,276.670 20.547,276.701 21.001 C 276.744 21.628,276.813 21.759,277.123 21.803 C 277.349 21.835,277.483 21.964,277.470 22.136 C 277.402 22.983,277.508 23.333,277.833 23.333 C 278.114 23.333,278.167 23.444,278.167 24.031 C 278.167 24.511,278.276 24.845,278.518 25.103 C 278.742 25.341,278.890 25.753,278.927 26.238 L 278.984 27.000 275.575 27.000 L 272.167 27.000 272.167 26.261 C 272.167 25.683,272.235 25.501,272.482 25.422 C 272.839 25.309,272.994 24.868,272.998 23.958 C 273.000 23.445,273.060 23.333,273.333 23.333 C 273.617 23.333,273.667 23.222,273.667 22.583 C 273.667 21.959,273.719 21.833,273.982 21.833 C 274.336 21.833,274.500 21.524,274.500 20.857 C 274.500 20.610,274.650 20.279,274.833 20.122 C 275.084 19.907,275.167 19.630,275.167 19.002 C 275.167 18.222,275.194 18.167,275.583 18.167 C 275.961 18.167,276.000 18.231,276.000 18.864 M330.052 51.818 C 330.007 51.993,329.826 52.173,329.651 52.219 C 329.463 52.268,329.333 52.448,329.333 52.659 C 329.333 52.855,329.140 53.195,328.903 53.415 C 328.570 53.723,328.480 53.957,328.503 54.448 C 328.564 55.768,328.516 56.017,328.208 55.966 C 327.977 55.927,327.906 56.055,327.867 56.589 C 327.830 57.091,327.726 57.302,327.455 57.422 C 327.209 57.531,327.084 57.745,327.068 58.083 C 327.026 58.939,327.006 59.000,326.768 59.000 C 326.463 59.000,326.333 59.368,326.333 60.237 C 326.333 60.828,326.265 60.978,325.925 61.132 C 325.581 61.289,325.523 61.421,325.554 61.979 C 325.575 62.342,325.540 62.608,325.477 62.569 C 325.145 62.364,324.833 62.743,324.833 63.351 C 324.833 63.932,324.790 64.000,324.417 64.000 C 324.050 64.000,324.000 63.929,324.000 63.401 C 324.000 62.942,323.922 62.782,323.667 62.715 C 323.447 62.657,323.333 62.488,323.333 62.215 C 323.333 61.942,323.447 61.773,323.667 61.715 C 324.169 61.584,324.186 56.082,323.685 55.922 C 323.511 55.867,323.331 55.675,323.284 55.494 C 323.201 55.180,323.035 55.167,319.182 55.167 L 315.167 55.167 315.167 60.577 C 315.167 66.897,315.002 66.424,317.161 66.299 C 318.877 66.200,318.832 66.252,318.844 64.365 C 318.852 63.120,318.892 62.845,319.020 63.165 C 319.111 63.394,319.294 63.641,319.426 63.715 C 319.558 63.789,319.667 64.022,319.667 64.232 C 319.667 64.481,319.817 64.682,320.100 64.810 C 320.377 64.937,320.499 65.097,320.438 65.254 C 320.371 65.430,320.461 65.500,320.755 65.500 C 321.051 65.500,321.167 65.591,321.167 65.822 C 321.167 66.283,321.434 66.322,324.500 66.310 C 327.254 66.299,327.833 66.200,327.833 65.744 C 327.833 65.610,327.983 65.500,328.167 65.500 C 328.451 65.500,328.500 65.389,328.500 64.750 L 328.500 64.000 329.981 64.000 C 331.321 64.000,331.469 64.032,331.548 64.333 C 331.596 64.517,331.755 64.667,331.901 64.667 C 332.047 64.667,332.175 64.723,332.186 64.792 C 332.196 64.860,332.230 65.134,332.261 65.400 C 332.345 66.125,332.534 66.219,334.049 66.299 C 335.864 66.394,335.997 66.277,335.950 64.621 C 335.919 63.511,335.887 63.412,335.542 63.363 C 335.211 63.316,335.167 63.214,335.167 62.488 C 335.167 61.889,335.077 61.577,334.833 61.333 C 334.650 61.150,334.500 60.819,334.500 60.597 C 334.500 59.976,334.328 59.667,333.982 59.667 C 333.719 59.667,333.667 59.541,333.667 58.917 C 333.667 58.278,333.617 58.167,333.333 58.167 C 333.060 58.167,333.000 58.055,332.998 57.542 C 332.994 56.632,332.839 56.191,332.482 56.078 C 332.229 55.997,332.167 55.816,332.167 55.165 L 332.167 54.352 332.875 54.301 L 333.583 54.250 333.583 53.250 C 333.583 52.330,333.552 52.246,333.195 52.195 C 332.981 52.165,332.663 51.996,332.487 51.820 C 332.021 51.355,330.174 51.353,330.052 51.818 M131.375 54.444 C 131.068 54.488,130.759 54.661,130.661 54.844 C 130.541 55.068,130.311 55.167,129.911 55.167 C 129.414 55.167,129.333 55.222,129.333 55.562 C 129.333 55.866,129.247 55.952,128.958 55.937 C 128.590 55.917,128.582 55.955,128.535 58.083 C 128.472 60.935,128.491 60.999,129.378 61.003 C 129.872 61.004,130.011 61.051,129.841 61.158 C 129.708 61.242,129.539 61.274,129.466 61.229 C 129.393 61.184,129.333 61.301,129.333 61.490 C 129.333 61.745,129.226 61.833,128.917 61.833 C 128.589 61.833,128.500 61.918,128.500 62.231 C 128.500 62.508,128.411 62.623,128.208 62.606 C 127.697 62.566,127.689 64.598,128.200 64.761 C 128.410 64.827,128.665 64.995,128.766 65.133 C 128.878 65.286,129.320 65.416,129.892 65.463 C 130.652 65.526,130.833 65.598,130.833 65.836 C 130.833 66.245,131.159 66.333,132.668 66.333 C 133.941 66.333,134.500 66.126,134.500 65.655 C 134.500 65.570,134.807 65.500,135.182 65.500 C 135.721 65.500,135.883 65.431,135.950 65.172 C 135.997 64.992,136.178 64.799,136.351 64.744 C 136.639 64.653,136.667 64.457,136.667 62.489 C 136.667 60.118,136.493 59.667,135.583 59.667 C 135.010 59.667,134.973 58.884,135.542 58.803 C 135.776 58.770,135.936 58.616,135.968 58.392 C 136.024 57.996,136.504 57.794,136.857 58.018 C 136.981 58.097,137.665 58.163,138.375 58.164 L 139.667 58.167 139.667 62.156 L 139.667 66.146 140.434 66.261 C 141.222 66.379,142.858 66.274,143.162 66.086 C 143.271 66.019,143.333 64.564,143.333 62.073 L 143.333 58.167 144.125 58.165 C 145.377 58.162,146.142 57.988,146.222 57.688 C 146.262 57.539,146.303 59.259,146.314 61.510 C 146.329 64.620,146.386 65.675,146.554 65.905 C 146.796 66.236,148.758 66.472,149.570 66.268 L 150.000 66.160 150.000 60.663 L 150.000 55.167 148.181 55.167 C 146.881 55.167,146.337 55.226,146.277 55.375 C 146.210 55.542,146.190 55.542,146.180 55.375 C 146.170 55.214,145.099 55.167,141.417 55.167 L 136.667 55.167 136.667 55.556 C 136.667 55.800,136.568 55.944,136.402 55.944 C 136.256 55.944,136.071 55.769,135.989 55.556 C 135.865 55.227,135.724 55.167,135.087 55.167 C 134.467 55.167,134.333 55.112,134.333 54.861 C 134.333 54.693,134.240 54.550,134.125 54.543 C 134.010 54.536,133.467 54.493,132.917 54.449 C 132.367 54.404,131.673 54.402,131.375 54.444 M184.417 54.442 C 184.233 54.481,183.917 54.548,183.714 54.592 C 183.471 54.643,183.377 54.754,183.440 54.918 C 183.517 55.118,183.370 55.167,182.684 55.167 C 181.893 55.167,181.833 55.195,181.833 55.574 C 181.833 55.891,181.760 55.967,181.500 55.917 C 181.240 55.867,181.167 55.942,181.167 56.260 C 181.167 56.556,181.076 56.667,180.833 56.667 C 180.650 56.667,180.500 56.736,180.500 56.821 C 180.500 57.022,180.022 57.500,179.821 57.500 C 179.736 57.500,179.667 56.974,179.667 56.331 L 179.667 55.161 175.232 55.206 L 170.798 55.250 170.807 56.458 C 170.812 57.123,170.820 57.779,170.825 57.917 C 170.832 58.120,171.116 58.167,172.347 58.167 L 173.860 58.167 173.814 62.047 C 173.762 66.549,173.698 66.333,175.080 66.333 C 176.800 66.333,176.667 66.684,176.667 62.161 L 176.667 58.190 178.167 58.137 L 179.667 58.083 179.667 60.614 C 179.667 62.998,179.686 63.150,180.000 63.250 C 180.303 63.346,180.407 63.531,180.353 63.875 C 180.342 63.944,180.521 64.000,180.750 64.000 C 181.083 64.000,181.167 64.083,181.167 64.417 C 181.167 64.722,181.256 64.833,181.500 64.833 C 181.722 64.833,181.833 64.944,181.833 65.167 C 181.833 65.456,181.944 65.500,182.684 65.500 C 183.381 65.500,183.518 65.547,183.438 65.755 C 183.295 66.128,184.016 66.347,185.316 66.324 C 186.725 66.300,187.000 66.218,187.000 65.822 C 187.000 65.552,187.120 65.500,187.737 65.500 C 188.263 65.500,188.609 65.389,188.946 65.112 C 189.205 64.898,189.548 64.675,189.708 64.617 C 189.911 64.543,190.000 64.331,190.000 63.922 C 190.000 63.444,190.063 63.333,190.333 63.333 C 190.654 63.333,190.667 63.222,190.667 60.333 C 190.667 57.476,190.651 57.333,190.343 57.333 C 190.090 57.333,190.009 57.198,189.968 56.708 C 189.923 56.165,189.857 56.076,189.456 56.030 C 189.202 56.001,189.034 55.913,189.083 55.833 C 189.249 55.565,188.430 55.167,187.713 55.167 C 187.128 55.167,187.000 55.111,187.000 54.856 C 187.000 54.445,185.524 54.208,184.417 54.442 M222.633 54.454 C 222.204 54.499,221.985 54.618,221.914 54.843 C 221.835 55.091,221.658 55.167,221.155 55.167 C 220.527 55.167,220.398 55.299,220.476 55.863 C 220.485 55.926,220.306 55.943,220.079 55.902 C 219.730 55.838,219.667 55.891,219.667 56.247 C 219.667 56.579,219.583 56.667,219.266 56.667 C 218.943 56.667,218.882 56.734,218.954 57.010 C 219.020 57.262,218.950 57.378,218.691 57.445 C 218.496 57.496,218.378 57.604,218.428 57.686 C 218.479 57.767,218.444 57.833,218.351 57.833 C 217.990 57.833,218.127 63.021,218.491 63.116 C 218.835 63.206,219.060 63.602,218.907 63.848 C 218.856 63.932,219.006 64.000,219.240 64.000 C 219.543 64.000,219.667 64.089,219.667 64.307 C 219.667 64.475,219.854 64.699,220.083 64.803 C 220.313 64.907,220.500 65.107,220.500 65.246 C 220.500 65.431,220.681 65.500,221.167 65.500 C 221.653 65.500,221.833 65.569,221.833 65.754 C 221.833 66.461,225.128 66.589,225.580 65.899 C 225.768 65.612,225.995 65.500,226.389 65.500 C 226.708 65.500,227.088 65.360,227.298 65.164 C 227.496 64.979,227.848 64.756,228.079 64.668 C 228.465 64.522,228.500 64.424,228.500 63.509 C 228.500 62.694,228.454 62.528,228.252 62.606 C 228.090 62.668,227.948 62.551,227.840 62.267 C 227.737 61.997,227.548 61.833,227.337 61.833 C 227.111 61.833,227.000 61.724,227.000 61.500 C 227.000 61.222,226.889 61.167,226.333 61.167 C 225.778 61.167,225.667 61.222,225.667 61.500 C 225.667 61.744,225.556 61.833,225.250 61.833 C 224.921 61.833,224.833 61.918,224.833 62.234 C 224.833 62.737,223.571 62.665,223.199 62.140 C 223.079 61.972,222.873 61.833,222.741 61.833 C 222.608 61.833,222.500 61.683,222.500 61.500 C 222.500 61.317,222.444 61.176,222.375 61.186 C 221.924 61.258,221.833 61.114,221.833 60.333 C 221.833 59.611,221.878 59.500,222.167 59.500 C 222.389 59.500,222.500 59.389,222.500 59.167 C 222.500 58.939,222.611 58.833,222.849 58.833 C 223.058 58.833,223.233 58.699,223.285 58.500 C 223.355 58.231,223.512 58.167,224.103 58.167 C 224.722 58.167,224.833 58.217,224.833 58.500 C 224.833 58.722,224.944 58.833,225.167 58.833 C 225.350 58.833,225.500 58.903,225.500 58.988 C 225.500 59.675,226.678 59.795,227.127 59.155 C 227.251 58.978,227.460 58.833,227.593 58.833 C 227.725 58.833,227.833 58.683,227.833 58.500 C 227.833 58.278,227.944 58.167,228.167 58.167 C 228.465 58.167,228.500 58.056,228.500 57.101 C 228.500 56.051,228.267 55.649,227.818 55.926 C 227.735 55.978,227.667 55.873,227.667 55.694 C 227.667 55.287,227.360 55.167,226.320 55.167 C 225.631 55.167,225.500 55.117,225.500 54.856 C 225.500 54.613,225.332 54.522,224.727 54.439 C 223.951 54.333,223.774 54.334,222.633 54.454 M238.994 54.394 C 238.944 54.444,238.614 54.504,238.260 54.528 C 237.806 54.559,237.594 54.659,237.539 54.869 C 237.479 55.097,237.292 55.167,236.742 55.167 C 236.123 55.167,236.016 55.219,235.970 55.542 C 235.935 55.788,235.802 55.917,235.583 55.917 C 235.369 55.917,235.232 56.045,235.199 56.275 C 235.171 56.472,235.002 56.671,234.824 56.717 C 234.571 56.784,234.500 56.949,234.500 57.473 C 234.500 58.041,234.443 58.152,234.125 58.197 C 233.759 58.249,233.750 58.300,233.750 60.333 C 233.750 62.367,233.759 62.418,234.125 62.470 C 234.449 62.516,234.500 62.623,234.500 63.262 C 234.500 63.880,234.552 64.000,234.822 64.000 C 235.029 64.000,235.163 64.134,235.197 64.375 C 235.231 64.616,235.384 64.769,235.625 64.803 C 235.866 64.837,236.000 64.971,236.000 65.178 C 236.000 65.448,236.120 65.500,236.750 65.500 C 237.292 65.500,237.500 65.567,237.500 65.740 C 237.500 66.119,237.780 66.207,239.246 66.290 C 240.614 66.367,241.667 66.094,241.667 65.662 C 241.667 65.573,242.011 65.500,242.432 65.500 C 243.045 65.500,243.214 65.437,243.281 65.182 C 243.327 65.007,243.507 64.827,243.682 64.781 C 243.863 64.734,244.000 64.552,244.000 64.361 C 244.000 64.138,244.127 64.005,244.375 63.970 C 244.680 63.927,244.760 63.794,244.804 63.257 C 244.838 62.840,244.976 62.515,245.179 62.373 C 245.463 62.174,245.500 61.936,245.500 60.333 C 245.500 58.731,245.463 58.493,245.179 58.294 C 244.976 58.152,244.838 57.827,244.804 57.409 C 244.760 56.878,244.679 56.740,244.385 56.698 C 244.158 56.666,244.001 56.509,243.969 56.281 C 243.935 56.048,243.816 55.933,243.637 55.963 C 243.455 55.993,243.339 55.877,243.304 55.630 C 243.259 55.310,243.134 55.242,242.518 55.198 C 242.059 55.165,241.686 55.029,241.518 54.833 C 241.258 54.530,239.212 54.175,238.994 54.394 M350.773 54.456 C 350.311 54.504,350.106 54.613,350.045 54.844 C 349.980 55.093,349.813 55.167,349.314 55.167 C 348.921 55.167,348.657 55.248,348.641 55.375 C 348.627 55.490,348.607 55.660,348.597 55.753 C 348.586 55.846,348.410 56.090,348.205 56.295 C 347.611 56.889,347.664 60.333,348.268 60.333 C 348.396 60.333,348.500 60.483,348.500 60.667 C 348.500 60.914,348.619 61.006,348.958 61.023 C 349.351 61.042,349.363 61.056,349.042 61.118 C 348.835 61.157,348.667 61.248,348.667 61.319 C 348.667 61.520,348.060 62.171,347.964 62.075 C 347.916 62.027,347.865 62.597,347.849 63.341 C 347.823 64.555,347.853 64.703,348.144 64.779 C 348.323 64.826,348.507 65.007,348.552 65.182 C 348.619 65.437,348.788 65.500,349.401 65.500 C 349.957 65.500,350.167 65.566,350.167 65.740 C 350.167 66.134,350.497 66.229,352.035 66.278 C 353.602 66.329,354.333 66.162,354.333 65.754 C 354.333 65.584,354.495 65.500,354.820 65.500 C 355.613 65.500,355.829 65.336,355.939 64.648 C 356.017 64.163,356.121 64.000,356.355 64.000 C 356.777 64.000,356.833 60.845,356.417 60.500 C 356.279 60.386,356.159 60.358,356.150 60.438 C 356.141 60.518,356.082 60.396,356.018 60.167 C 355.947 59.911,355.761 59.729,355.535 59.697 C 355.301 59.663,355.167 59.526,355.167 59.322 C 355.167 59.145,355.073 59.000,354.958 58.999 C 354.844 58.999,354.996 58.849,355.296 58.666 C 355.649 58.450,355.877 58.157,355.942 57.833 C 355.997 57.558,356.105 57.333,356.182 57.333 C 356.425 57.333,356.689 56.668,356.581 56.327 C 356.524 56.147,356.372 56.000,356.242 56.000 C 356.112 56.000,355.959 55.813,355.902 55.583 C 355.804 55.193,355.729 55.167,354.732 55.167 C 353.804 55.167,353.667 55.127,353.667 54.856 C 353.667 54.613,353.499 54.522,352.893 54.439 C 352.116 54.333,351.953 54.334,350.773 54.456 M375.208 54.455 C 374.640 54.507,374.500 54.583,374.500 54.843 C 374.500 55.116,374.381 55.167,373.750 55.167 C 373.127 55.167,373.000 55.220,373.000 55.481 C 373.000 55.658,372.850 55.834,372.654 55.885 C 372.464 55.935,372.268 56.131,372.218 56.321 C 372.167 56.516,371.991 56.667,371.814 56.667 C 371.611 56.667,371.500 56.785,371.500 57.000 C 371.500 57.183,371.392 57.333,371.260 57.333 C 370.843 57.333,370.797 57.630,370.797 60.333 C 370.797 63.037,370.843 63.333,371.260 63.333 C 371.392 63.333,371.500 63.483,371.500 63.667 C 371.500 63.883,371.611 64.000,371.815 64.000 C 372.013 64.000,372.170 64.156,372.235 64.417 C 372.303 64.686,372.457 64.833,372.670 64.833 C 372.889 64.833,373.000 64.946,373.000 65.167 C 373.000 65.451,373.111 65.500,373.750 65.500 C 374.372 65.500,374.500 65.553,374.500 65.813 C 374.500 66.174,374.897 66.277,376.465 66.321 C 377.742 66.358,378.167 66.238,378.167 65.843 C 378.167 65.602,378.340 65.526,379.035 65.459 C 379.677 65.397,379.965 65.283,380.139 65.021 C 380.268 64.826,380.508 64.667,380.672 64.667 C 380.889 64.667,381.001 64.489,381.081 64.016 C 381.156 63.571,381.292 63.340,381.512 63.282 C 381.814 63.203,381.833 63.022,381.833 60.333 C 381.833 57.644,381.814 57.464,381.512 57.385 C 381.292 57.327,381.156 57.096,381.081 56.650 C 380.988 56.104,380.906 56.000,380.569 56.000 C 380.327 56.000,380.167 55.903,380.167 55.756 C 380.167 55.406,379.629 55.167,378.844 55.167 C 378.295 55.167,378.167 55.108,378.167 54.857 C 378.167 54.560,376.997 54.272,376.167 54.364 C 376.029 54.379,375.598 54.420,375.208 54.455 M111.500 60.573 C 111.500 63.845,111.563 66.019,111.660 66.079 C 111.943 66.254,113.941 66.382,114.564 66.265 L 115.167 66.152 115.167 60.659 L 115.167 55.167 113.333 55.167 L 111.500 55.167 111.500 60.573 M116.772 55.284 C 116.708 55.348,116.663 57.790,116.674 60.709 L 116.693 66.018 117.138 66.191 C 117.605 66.373,119.806 66.307,120.139 66.100 C 120.268 66.021,120.338 65.322,120.346 64.032 C 120.354 62.960,120.397 62.177,120.444 62.292 C 120.490 62.406,120.672 62.500,120.847 62.500 C 121.077 62.500,121.167 62.617,121.167 62.917 C 121.167 63.222,121.256 63.333,121.500 63.333 C 121.722 63.333,121.833 63.444,121.833 63.667 C 121.833 63.909,121.944 64.000,122.240 64.000 C 122.600 64.000,122.654 64.083,122.699 64.702 C 122.738 65.237,122.829 65.425,123.083 65.493 C 123.267 65.543,123.417 65.692,123.417 65.826 C 123.417 66.247,125.208 66.483,126.479 66.229 L 127.000 66.125 127.000 60.640 L 127.000 55.155 125.208 55.203 L 123.417 55.250 123.370 57.108 C 123.326 58.839,123.301 58.960,123.007 58.883 C 122.793 58.827,122.655 58.592,122.582 58.157 C 122.510 57.730,122.366 57.480,122.153 57.412 C 121.977 57.357,121.833 57.166,121.833 56.989 C 121.833 56.782,121.718 56.667,121.512 56.667 C 121.305 56.667,121.171 56.533,121.137 56.292 C 121.098 56.022,120.978 55.922,120.708 55.937 C 120.419 55.952,120.333 55.866,120.333 55.562 C 120.333 55.165,117.139 54.916,116.772 55.284 M150.768 55.430 C 150.611 55.840,150.649 57.264,150.829 57.739 C 150.985 58.149,151.047 58.167,152.329 58.167 L 153.667 58.167 153.667 62.087 L 153.667 66.008 154.125 66.187 C 154.602 66.372,156.801 66.309,157.139 66.100 C 157.278 66.015,157.333 64.866,157.333 62.073 L 157.333 58.167 158.500 58.167 L 159.667 58.167 159.667 56.667 L 159.667 55.167 155.268 55.167 C 151.410 55.167,150.857 55.199,150.768 55.430 M160.418 59.209 L 160.419 63.250 160.793 63.303 C 161.106 63.348,161.167 63.460,161.167 64.000 C 161.167 64.486,161.244 64.669,161.482 64.744 C 161.655 64.799,161.836 64.992,161.883 65.172 C 161.952 65.437,162.113 65.500,162.716 65.500 C 163.314 65.500,163.458 65.556,163.440 65.780 C 163.410 66.142,163.959 66.296,165.361 66.317 C 166.680 66.336,167.000 66.239,167.000 65.816 C 167.000 65.553,167.125 65.500,167.750 65.500 C 168.380 65.500,168.500 65.448,168.500 65.178 C 168.500 64.971,168.634 64.837,168.875 64.803 C 169.110 64.770,169.269 64.616,169.301 64.392 C 169.329 64.195,169.498 63.996,169.676 63.949 C 169.986 63.868,170.000 63.682,170.000 59.510 L 170.000 55.155 168.208 55.203 L 166.417 55.250 166.372 58.523 C 166.329 61.625,166.309 61.801,165.997 61.883 C 165.810 61.931,165.667 62.110,165.667 62.295 C 165.667 62.729,164.899 62.604,164.781 62.150 C 164.733 61.966,164.552 61.833,164.349 61.833 C 164.006 61.833,164.000 61.772,164.000 58.500 L 164.000 55.167 162.208 55.167 L 160.417 55.167 160.418 59.209 M196.000 60.573 C 196.000 64.217,196.058 66.016,196.177 66.090 C 196.533 66.310,198.933 66.381,199.304 66.183 C 199.647 65.999,199.667 65.874,199.667 63.911 C 199.667 62.156,199.706 61.833,199.922 61.833 C 200.184 61.833,200.234 61.924,200.403 62.697 C 200.457 62.943,200.651 63.192,200.834 63.250 C 201.017 63.308,201.167 63.501,201.167 63.678 C 201.167 63.885,201.282 64.000,201.488 64.000 C 201.695 64.000,201.829 64.134,201.863 64.375 C 201.898 64.616,202.051 64.769,202.292 64.803 C 202.596 64.846,202.667 64.963,202.667 65.418 C 202.667 66.134,202.756 66.181,204.314 66.288 C 206.500 66.438,206.333 66.910,206.333 60.577 L 206.333 55.167 204.500 55.167 L 202.667 55.167 202.644 57.042 C 202.631 58.073,202.589 58.748,202.549 58.542 C 202.504 58.307,202.356 58.167,202.155 58.167 C 201.940 58.167,201.833 58.051,201.833 57.818 C 201.833 57.609,201.699 57.434,201.500 57.382 C 201.316 57.333,201.167 57.154,201.167 56.981 C 201.167 56.757,201.047 56.667,200.750 56.667 C 200.390 56.667,200.333 56.592,200.333 56.117 C 200.333 55.244,200.141 55.167,197.967 55.167 L 196.000 55.167 196.000 60.573 M210.789 55.266 C 210.734 55.321,210.726 55.462,210.771 55.579 C 210.820 55.705,210.679 55.836,210.428 55.899 C 210.193 55.958,210.010 56.061,210.021 56.128 C 210.127 56.820,209.965 57.470,209.667 57.548 C 209.380 57.623,209.333 57.776,209.333 58.639 C 209.333 59.554,209.300 59.648,208.958 59.697 C 208.648 59.741,208.575 59.870,208.533 60.441 C 208.495 60.961,208.402 61.153,208.158 61.217 C 207.903 61.284,207.833 61.448,207.833 61.984 C 207.833 62.535,207.774 62.667,207.528 62.667 C 207.195 62.667,207.197 62.661,207.061 64.000 C 207.009 64.504,206.844 65.055,206.693 65.224 C 206.123 65.865,207.128 66.386,208.769 66.300 C 210.475 66.210,210.667 66.068,210.667 64.896 L 210.667 64.000 212.383 64.000 C 214.342 64.000,214.500 64.082,214.500 65.096 C 214.500 66.009,214.755 66.194,216.156 66.294 C 218.112 66.434,218.167 66.394,218.167 64.841 C 218.167 63.386,217.975 62.667,217.587 62.667 C 217.397 62.667,217.333 62.478,217.333 61.917 C 217.333 61.278,217.284 61.167,217.000 61.167 C 216.716 61.167,216.667 61.056,216.667 60.417 C 216.667 59.778,216.617 59.667,216.333 59.667 C 216.049 59.667,216.000 59.556,216.000 58.909 C 216.000 58.323,215.906 58.057,215.583 57.735 C 215.284 57.435,215.167 57.139,215.167 56.679 C 215.167 56.179,215.094 56.020,214.833 55.952 C 214.634 55.900,214.500 55.724,214.500 55.516 C 214.500 55.172,211.111 54.944,210.789 55.266 M229.333 60.656 L 229.333 66.146 230.101 66.261 C 231.104 66.412,232.682 66.244,232.857 65.968 C 232.933 65.848,232.996 63.369,232.997 60.458 L 233.000 55.167 231.167 55.167 L 229.333 55.167 229.333 60.656 M246.333 60.659 L 246.333 66.152 246.936 66.265 C 247.766 66.420,249.696 66.220,249.860 65.962 C 249.934 65.845,249.996 65.019,249.997 64.125 C 250.000 62.643,250.028 62.500,250.315 62.500 C 250.513 62.500,250.670 62.656,250.735 62.917 C 250.800 63.175,250.958 63.333,251.151 63.333 C 251.376 63.333,251.494 63.498,251.574 63.925 C 251.635 64.251,251.787 64.557,251.911 64.604 C 252.035 64.652,252.182 64.873,252.238 65.095 C 252.303 65.353,252.459 65.500,252.670 65.500 C 252.885 65.500,253.000 65.612,253.000 65.823 C 253.000 66.235,254.112 66.430,255.476 66.257 C 256.599 66.115,256.616 66.115,258.026 66.262 C 259.467 66.411,260.333 66.255,260.333 65.845 C 260.333 65.677,260.481 65.500,260.662 65.453 C 260.895 65.392,261.022 65.169,261.100 64.683 L 261.209 64.000 262.688 64.000 C 264.078 64.000,264.167 64.021,264.167 64.349 C 264.167 64.558,264.301 64.733,264.500 64.785 C 264.751 64.851,264.833 65.012,264.833 65.440 C 264.833 66.502,268.479 66.831,268.511 65.772 L 268.521 65.417 268.667 65.778 C 268.865 66.271,269.887 66.383,273.490 66.309 C 276.866 66.239,276.684 66.364,276.626 64.167 L 276.583 62.583 274.375 62.639 L 272.167 62.694 272.167 58.930 L 272.167 55.167 270.434 55.167 C 268.310 55.167,268.500 54.732,268.500 59.582 C 268.500 63.190,268.479 63.467,268.208 63.428 C 268.039 63.404,267.897 63.217,267.870 62.985 C 267.763 62.064,267.655 61.833,267.330 61.833 C 267.059 61.833,267.000 61.720,267.000 61.204 C 267.000 60.780,266.891 60.481,266.667 60.289 C 266.461 60.113,266.332 59.795,266.331 59.460 C 266.327 58.592,266.157 58.167,265.814 58.167 C 265.553 58.167,265.500 58.040,265.500 57.417 C 265.500 56.778,265.451 56.667,265.167 56.667 C 264.883 56.667,264.833 56.556,264.833 55.917 L 264.833 55.167 262.756 55.167 C 260.429 55.167,260.361 55.202,260.416 56.368 C 260.433 56.708,260.388 56.951,260.318 56.907 C 260.076 56.758,259.667 57.574,259.667 58.204 C 259.667 58.710,259.605 58.833,259.351 58.833 C 258.968 58.833,258.877 59.058,258.931 59.871 C 258.967 60.418,258.930 60.487,258.611 60.454 C 258.295 60.421,258.243 60.511,258.197 61.166 C 258.167 61.579,258.025 62.047,257.879 62.208 C 257.734 62.369,257.669 62.500,257.736 62.500 C 257.803 62.500,257.742 62.615,257.601 62.756 C 257.429 62.928,257.377 63.176,257.443 63.506 C 257.527 63.924,257.490 64.000,257.201 64.000 C 257.014 64.000,256.823 64.094,256.777 64.208 C 256.731 64.323,256.687 62.335,256.680 59.792 L 256.667 55.167 254.821 55.167 C 253.010 55.167,252.977 55.174,253.007 55.542 C 253.023 55.748,253.029 56.600,253.018 57.435 L 253.000 58.954 252.583 58.874 C 252.256 58.812,252.167 58.694,252.167 58.323 C 252.167 58.051,252.034 57.760,251.853 57.633 C 251.681 57.512,251.511 57.264,251.477 57.082 C 251.441 56.894,251.255 56.727,251.050 56.698 C 250.825 56.666,250.667 56.508,250.635 56.281 C 250.601 56.040,250.484 55.933,250.292 55.966 C 250.077 56.002,250.000 55.902,250.000 55.591 L 250.000 55.167 248.167 55.167 L 246.333 55.167 246.333 60.659 M281.274 55.282 C 281.062 55.493,281.163 65.978,281.378 66.111 C 282.122 66.571,286.821 66.332,286.953 65.827 C 287.021 65.568,287.223 65.506,288.143 65.466 C 289.078 65.424,289.246 65.371,289.227 65.125 C 289.211 64.922,289.325 64.833,289.602 64.833 C 289.915 64.833,290.000 64.745,290.000 64.417 C 290.000 64.111,290.089 64.000,290.333 64.000 C 290.546 64.000,290.667 63.889,290.667 63.693 C 290.667 63.525,290.854 63.301,291.083 63.197 L 291.500 63.007 291.500 60.432 C 291.500 57.848,291.387 57.333,290.821 57.333 C 290.736 57.333,290.667 57.183,290.667 57.000 C 290.667 56.778,290.556 56.667,290.333 56.667 C 290.118 56.667,290.000 56.556,290.000 56.353 C 290.000 56.175,289.850 56.000,289.654 55.948 C 289.464 55.899,289.268 55.703,289.218 55.512 C 289.127 55.162,281.612 54.944,281.274 55.282 M292.329 55.289 C 292.245 57.713,292.385 65.952,292.513 66.079 C 292.720 66.287,300.739 66.317,300.945 66.111 C 301.021 66.035,301.083 65.210,301.083 64.278 L 301.083 62.583 298.542 62.640 L 296.000 62.696 296.000 62.265 L 296.000 61.833 298.167 61.833 L 300.333 61.833 300.333 60.333 L 300.333 58.833 298.167 58.833 C 296.111 58.833,296.000 58.816,296.000 58.500 C 296.000 58.182,296.111 58.167,298.396 58.167 C 301.250 58.167,301.202 58.197,301.133 56.474 L 301.083 55.250 296.708 55.206 C 294.302 55.181,292.331 55.219,292.329 55.289 M305.593 56.456 C 305.608 57.168,305.631 57.844,305.644 57.958 C 305.659 58.101,306.007 58.167,306.750 58.167 L 307.833 58.167 307.833 61.885 C 307.833 66.347,307.769 66.181,309.530 66.294 C 311.614 66.427,311.500 66.670,311.500 62.084 L 311.500 58.180 312.958 58.131 L 314.417 58.083 314.417 56.667 L 314.417 55.250 309.991 55.206 L 305.566 55.161 305.593 56.456 M336.671 60.649 L 336.684 66.132 337.050 66.230 C 337.532 66.360,339.068 66.361,339.403 66.232 C 339.625 66.147,339.667 65.782,339.667 63.914 C 339.667 61.780,339.679 61.701,340.000 61.785 C 340.304 61.864,340.407 62.036,340.353 62.375 C 340.342 62.444,340.521 62.500,340.750 62.500 C 341.159 62.500,341.285 62.836,341.176 63.638 C 341.160 63.760,341.301 63.900,341.490 63.949 C 341.682 63.999,341.833 64.176,341.833 64.350 C 341.833 64.542,341.992 64.700,342.250 64.765 C 342.511 64.830,342.667 64.987,342.667 65.185 C 342.667 65.389,342.784 65.500,343.000 65.500 C 343.301 65.500,343.359 65.582,343.321 65.952 C 343.264 66.502,345.824 66.460,346.490 65.900 L 347.005 65.466 346.961 60.358 L 346.917 55.250 345.125 55.203 L 343.333 55.155 343.333 57.055 L 343.333 58.954 342.938 58.878 C 342.699 58.832,342.550 58.693,342.563 58.526 C 342.575 58.359,342.436 58.229,342.208 58.197 C 341.943 58.159,341.833 58.031,341.833 57.758 C 341.833 57.522,341.713 57.341,341.523 57.291 C 341.325 57.239,341.172 56.996,341.102 56.623 C 341.029 56.236,340.880 56.008,340.663 55.951 C 340.467 55.899,340.333 55.723,340.333 55.516 C 340.333 55.183,340.250 55.167,338.496 55.167 L 336.659 55.167 336.671 60.649 M357.496 55.286 C 357.438 57.404,357.511 66.066,357.587 66.143 C 357.746 66.302,360.782 66.273,360.944 66.111 C 361.021 66.035,361.083 63.560,361.083 60.611 L 361.083 55.250 359.292 55.203 C 358.306 55.177,357.498 55.214,357.496 55.286 M361.869 56.625 L 361.917 58.083 363.042 58.133 L 364.167 58.182 364.167 61.744 C 364.167 66.260,364.201 66.333,366.313 66.333 C 367.875 66.333,367.833 66.452,367.833 61.988 L 367.833 58.167 369.125 58.147 C 369.835 58.136,370.473 58.136,370.542 58.147 C 370.610 58.158,370.667 57.492,370.667 56.667 L 370.667 55.167 366.244 55.167 L 361.820 55.167 361.869 56.625 M133.721 58.400 C 133.833 58.693,133.699 58.833,133.306 58.833 C 133.111 58.833,133.000 58.712,133.000 58.500 C 133.000 58.112,133.579 58.032,133.721 58.400 M186.333 58.500 C 186.333 58.736,186.444 58.833,186.714 58.833 C 187.082 58.833,187.094 58.883,187.094 60.333 C 187.094 61.784,187.082 61.833,186.714 61.833 C 186.444 61.833,186.333 61.931,186.333 62.167 C 186.333 62.350,186.258 62.506,186.167 62.514 C 184.531 62.650,184.000 62.575,184.000 62.208 C 184.000 62.002,183.850 61.683,183.667 61.500 C 183.422 61.256,183.333 60.944,183.333 60.333 C 183.333 59.722,183.422 59.411,183.667 59.167 C 183.850 58.983,184.000 58.683,184.000 58.500 C 184.000 58.198,184.111 58.167,185.167 58.167 C 186.222 58.167,186.333 58.198,186.333 58.500 M240.440 58.458 C 240.425 58.643,240.554 58.769,240.792 58.803 C 241.039 58.838,241.167 58.971,241.167 59.194 C 241.167 59.391,241.305 59.567,241.500 59.618 C 241.760 59.686,241.833 59.846,241.833 60.342 C 241.833 60.831,241.757 61.002,241.500 61.083 C 241.317 61.142,241.167 61.326,241.167 61.493 C 241.167 61.680,241.003 61.838,240.741 61.904 C 240.422 61.984,240.339 62.088,240.412 62.318 C 240.496 62.583,240.425 62.618,239.879 62.577 C 239.533 62.551,239.156 62.523,239.042 62.515 C 238.927 62.507,238.833 62.380,238.833 62.234 C 238.833 62.088,238.683 61.930,238.500 61.882 C 238.317 61.834,238.167 61.658,238.167 61.492 C 238.167 61.306,238.023 61.169,237.792 61.137 C 237.188 61.051,237.145 59.750,237.741 59.600 C 238.007 59.534,238.167 59.377,238.167 59.183 C 238.167 59.012,238.317 58.833,238.500 58.785 C 238.683 58.737,238.833 58.578,238.833 58.432 C 238.833 58.225,239.014 58.167,239.648 58.167 C 240.322 58.167,240.459 58.217,240.440 58.458 M286.382 58.500 C 286.432 58.692,286.609 58.833,286.798 58.833 C 286.988 58.833,287.165 58.975,287.215 59.167 C 287.263 59.350,287.422 59.500,287.568 59.500 C 287.781 59.500,287.833 59.694,287.833 60.480 C 287.833 61.526,287.708 61.733,286.957 61.921 C 286.691 61.988,286.500 62.150,286.500 62.310 C 286.500 62.527,286.328 62.583,285.667 62.583 L 284.833 62.583 284.833 60.375 L 284.833 58.167 285.564 58.167 C 286.154 58.167,286.311 58.231,286.382 58.500 M320.400 58.708 C 320.371 59.665,320.370 59.667,319.583 59.667 L 318.833 59.667 318.833 58.917 L 318.833 58.167 319.625 58.167 C 320.410 58.167,320.417 58.171,320.400 58.708 M377.417 58.500 C 377.475 58.683,377.667 58.833,377.845 58.833 C 378.139 58.833,378.167 58.962,378.167 60.333 C 378.167 61.694,378.137 61.833,377.851 61.833 C 377.548 61.833,377.259 62.244,377.400 62.473 C 377.438 62.534,376.950 62.583,376.317 62.583 C 375.235 62.583,375.167 62.561,375.167 62.208 C 375.167 61.999,375.064 61.833,374.934 61.833 C 374.367 61.833,374.271 59.029,374.833 58.882 C 375.018 58.833,375.167 58.654,375.167 58.481 C 375.167 57.993,377.261 58.011,377.417 58.500 M132.251 62.195 C 132.212 62.729,131.500 62.754,131.500 62.222 C 131.500 61.926,131.593 61.833,131.889 61.833 C 132.185 61.833,132.271 61.920,132.251 62.195 M351.711 62.167 C 351.930 62.422,351.943 62.500,351.768 62.500 C 351.642 62.500,351.500 62.350,351.452 62.167 C 351.404 61.983,351.378 61.833,351.395 61.833 C 351.412 61.833,351.554 61.983,351.711 62.167 M110.642 69.293 C 109.931 69.388,109.837 70.373,110.518 70.589 C 110.694 70.645,110.800 70.753,110.753 70.828 C 110.578 71.111,110.881 71.993,111.187 72.090 C 111.359 72.144,111.500 72.303,111.500 72.443 C 111.500 72.582,111.653 72.821,111.841 72.973 C 112.028 73.125,112.205 73.475,112.233 73.750 C 112.271 74.113,112.384 74.265,112.643 74.303 C 112.946 74.348,113.000 74.468,113.000 75.095 C 113.000 75.719,113.051 75.833,113.328 75.833 C 113.637 75.833,113.660 75.971,113.703 78.042 L 113.750 80.250 115.542 80.297 L 117.333 80.345 117.333 77.756 L 117.333 75.167 117.750 75.167 C 118.083 75.167,118.167 75.083,118.167 74.750 C 118.167 74.505,118.262 74.333,118.399 74.333 C 118.678 74.333,118.833 73.975,118.833 73.331 C 118.833 72.966,118.920 72.844,119.208 72.803 C 119.507 72.761,119.594 72.627,119.634 72.142 C 119.670 71.705,119.776 71.510,120.009 71.449 C 120.288 71.376,120.333 71.214,120.333 70.296 L 120.333 69.228 118.792 69.206 C 116.972 69.180,116.667 69.248,116.667 69.678 C 116.667 69.889,116.552 70.000,116.333 70.000 C 116.049 70.000,116.000 70.111,116.000 70.750 C 116.000 71.439,115.966 71.500,115.583 71.500 C 115.250 71.500,115.167 71.417,115.167 71.083 C 115.167 70.778,115.078 70.667,114.833 70.667 C 114.565 70.667,114.500 70.556,114.500 70.093 C 114.500 69.778,114.406 69.459,114.292 69.385 C 114.082 69.249,111.462 69.183,110.642 69.293 M124.148 69.392 C 124.129 69.596,124.134 71.831,124.155 72.042 C 124.161 72.110,124.803 72.167,125.580 72.167 L 126.994 72.167 127.039 76.208 L 127.083 80.250 128.431 80.298 C 129.172 80.324,129.978 80.270,130.223 80.177 L 130.667 80.008 130.667 76.087 L 130.667 72.167 131.833 72.167 L 133.000 72.167 133.000 70.761 C 133.000 69.568,132.956 69.342,132.708 69.266 C 132.097 69.077,124.167 69.193,124.148 69.392 M134.107 69.311 C 133.815 69.427,133.798 69.728,133.800 74.842 L 133.801 80.250 135.567 80.297 L 137.333 80.345 137.333 78.839 C 137.333 77.715,137.388 77.333,137.550 77.333 C 137.905 77.333,138.167 77.702,138.167 78.204 C 138.167 78.558,138.274 78.716,138.600 78.840 C 138.884 78.948,139.001 79.090,138.939 79.252 C 138.871 79.430,138.960 79.500,139.255 79.500 C 139.584 79.500,139.667 79.585,139.667 79.920 L 139.667 80.340 143.292 80.295 L 146.917 80.250 146.967 79.559 C 147.005 79.039,147.098 78.847,147.342 78.783 C 147.521 78.736,147.667 78.578,147.667 78.432 C 147.667 78.210,147.896 78.167,149.063 78.167 C 150.659 78.167,150.776 78.244,150.810 79.324 C 150.823 79.731,150.927 80.127,151.042 80.204 C 151.420 80.458,154.825 80.283,155.004 80.000 C 155.138 79.788,155.162 79.795,155.164 80.047 C 155.166 80.317,155.333 80.340,156.958 80.297 L 158.750 80.250 158.797 78.399 L 158.844 76.548 159.255 76.627 C 159.551 76.683,159.667 76.814,159.667 77.089 C 159.667 77.696,159.843 78.000,160.195 78.000 C 160.437 78.000,160.508 78.096,160.469 78.375 C 160.430 78.657,160.510 78.763,160.792 78.803 C 161.033 78.837,161.167 78.971,161.167 79.178 C 161.167 79.389,161.282 79.500,161.500 79.500 C 161.744 79.500,161.833 79.611,161.833 79.917 L 161.833 80.333 163.669 80.333 L 165.504 80.333 165.461 74.793 L 165.417 69.253 164.000 69.212 C 161.705 69.144,161.833 69.028,161.833 71.170 C 161.833 72.867,161.810 73.000,161.512 73.000 C 161.305 73.000,161.171 72.866,161.137 72.625 C 161.102 72.384,160.949 72.231,160.708 72.197 C 160.467 72.163,160.333 72.029,160.333 71.822 C 160.333 71.645,160.194 71.361,160.024 71.191 C 159.854 71.021,159.665 70.683,159.604 70.441 C 159.533 70.157,159.381 70.000,159.175 70.000 C 158.974 70.000,158.837 69.865,158.803 69.633 C 158.747 69.249,156.823 69.028,155.625 69.268 L 155.167 69.360 155.154 74.388 C 155.146 77.154,155.103 79.323,155.056 79.208 C 155.010 79.094,154.875 79.000,154.757 79.000 C 154.615 79.000,154.514 78.675,154.463 78.051 C 154.402 77.319,154.302 77.048,154.025 76.864 C 153.758 76.687,153.667 76.457,153.667 75.964 C 153.667 75.448,153.595 75.283,153.342 75.217 C 153.098 75.153,153.005 74.961,152.967 74.441 C 152.925 73.870,152.852 73.741,152.542 73.697 C 152.211 73.650,152.167 73.547,152.167 72.828 C 152.167 72.238,152.078 71.930,151.846 71.714 C 151.660 71.541,151.502 71.135,151.471 70.749 C 151.427 70.212,151.346 70.073,151.052 70.031 C 150.825 69.999,150.668 69.842,150.635 69.615 C 150.510 68.734,147.000 69.117,147.000 70.011 C 147.000 70.391,146.910 70.555,146.667 70.618 C 146.397 70.689,146.333 70.846,146.333 71.436 C 146.333 72.093,146.265 72.203,145.890 72.152 C 145.709 72.127,145.474 72.656,145.585 72.836 C 145.756 73.114,145.510 73.625,145.161 73.716 C 144.889 73.788,144.833 73.947,144.833 74.663 C 144.833 75.346,144.343 76.540,144.331 75.887 C 144.329 75.812,144.256 75.862,144.167 76.000 C 144.078 76.137,144.050 76.494,144.105 76.792 C 144.191 77.262,144.158 77.333,143.855 77.333 C 143.622 77.333,143.472 77.472,143.402 77.750 C 143.218 78.483,142.721 78.278,142.592 77.417 C 142.503 76.824,142.412 76.667,142.156 76.667 C 141.663 76.667,141.711 75.874,142.208 75.803 C 142.511 75.760,142.593 75.627,142.636 75.114 C 142.665 74.753,142.835 74.331,143.029 74.137 C 143.464 73.702,143.406 71.921,142.946 71.584 C 142.792 71.472,142.667 71.159,142.667 70.890 C 142.667 70.333,142.405 70.000,141.967 70.000 C 141.802 70.000,141.667 69.892,141.667 69.760 C 141.667 69.628,141.573 69.461,141.458 69.390 C 141.189 69.222,134.514 69.151,134.107 69.311 M167.923 69.299 C 167.874 69.349,167.833 69.526,167.833 69.694 C 167.833 69.907,167.710 70.000,167.426 70.000 C 167.114 70.000,167.034 70.075,167.081 70.322 C 167.116 70.500,166.963 70.838,166.738 71.080 C 166.146 71.719,166.153 73.320,166.750 74.030 C 166.979 74.303,167.167 74.670,167.167 74.846 C 167.167 75.056,167.282 75.167,167.500 75.167 C 167.953 75.167,167.943 75.766,167.488 75.885 C 167.297 75.935,167.103 76.124,167.056 76.306 C 167.008 76.487,166.826 76.673,166.651 76.719 C 166.130 76.855,166.182 78.789,166.708 78.863 C 166.959 78.899,167.067 79.014,167.034 79.208 C 166.994 79.450,167.113 79.500,167.731 79.500 C 168.378 79.500,168.484 79.550,168.530 79.875 C 168.628 80.567,173.667 80.523,173.667 79.830 C 173.667 79.589,173.779 79.500,174.083 79.500 C 174.389 79.500,174.500 79.411,174.500 79.167 C 174.500 78.944,174.611 78.833,174.833 78.833 C 175.335 78.833,175.352 74.581,174.851 74.422 C 174.678 74.367,174.497 74.175,174.450 73.994 C 174.383 73.736,174.221 73.667,173.682 73.667 C 173.053 73.667,172.912 73.558,172.980 73.125 C 172.991 73.056,172.644 72.999,172.208 72.998 C 171.097 72.995,170.667 72.850,170.667 72.481 C 170.667 72.257,170.786 72.167,171.083 72.167 C 171.389 72.167,171.500 72.256,171.500 72.500 C 171.500 73.007,174.318 73.012,174.450 72.506 C 174.497 72.325,174.678 72.133,174.851 72.078 C 175.405 71.902,175.312 70.000,174.750 70.000 C 174.487 70.000,174.333 69.906,174.333 69.745 C 174.333 69.604,174.165 69.425,173.958 69.346 C 173.556 69.192,168.073 69.150,167.923 69.299 M176.073 69.383 C 176.030 69.495,176.015 71.986,176.039 74.918 L 176.083 80.250 177.875 80.297 L 179.667 80.345 179.667 78.839 L 179.667 77.333 181.480 77.333 C 182.963 77.333,183.334 77.283,183.521 77.058 C 183.647 76.906,183.994 76.680,184.292 76.555 C 184.774 76.354,184.833 76.256,184.833 75.664 C 184.833 75.202,184.905 75.000,185.069 75.000 C 185.199 75.000,185.343 74.906,185.390 74.792 C 185.485 74.556,185.514 74.816,185.555 76.250 C 185.581 77.150,185.621 77.255,185.958 77.303 C 186.264 77.347,186.333 77.462,186.333 77.932 C 186.333 78.378,186.423 78.548,186.736 78.691 C 186.957 78.791,187.174 79.010,187.217 79.176 C 187.273 79.388,187.487 79.493,187.940 79.531 C 188.294 79.560,188.584 79.658,188.586 79.750 C 188.594 80.271,188.882 80.333,191.260 80.333 L 193.667 80.333 193.667 79.917 C 193.667 79.534,193.728 79.500,194.417 79.500 C 195.047 79.500,195.167 79.448,195.167 79.178 C 195.167 78.971,195.301 78.837,195.542 78.803 C 195.776 78.770,195.936 78.616,195.968 78.392 C 195.996 78.195,196.165 77.996,196.343 77.949 C 196.855 77.815,196.846 71.500,196.333 71.500 C 196.139 71.500,196.000 71.389,196.000 71.234 C 196.000 70.934,195.070 70.000,194.772 70.000 C 194.666 70.000,194.505 69.831,194.415 69.625 C 194.171 69.070,187.574 69.006,187.792 69.561 C 187.909 69.859,187.794 70.000,187.435 70.000 C 187.158 70.000,187.044 70.089,187.060 70.292 C 187.075 70.476,186.946 70.603,186.708 70.637 C 186.450 70.673,186.333 70.803,186.333 71.055 C 186.333 71.256,186.183 71.513,186.000 71.628 C 185.817 71.742,185.667 71.961,185.667 72.114 C 185.667 72.343,185.593 72.322,185.250 72.000 C 185.021 71.785,184.833 71.439,184.833 71.232 C 184.833 70.397,184.543 70.000,183.932 70.000 C 183.462 70.000,183.347 69.931,183.303 69.626 C 183.240 69.180,176.241 68.945,176.073 69.383 M198.266 69.289 C 198.211 69.344,198.167 71.858,198.167 74.877 L 198.167 80.365 199.840 80.307 C 201.769 80.241,201.827 80.199,201.831 78.857 C 201.833 78.112,201.877 77.981,202.097 78.066 C 202.242 78.121,202.429 78.167,202.514 78.167 C 202.598 78.167,202.667 78.286,202.667 78.432 C 202.667 78.577,202.814 78.821,202.994 78.973 C 203.175 79.125,203.350 79.475,203.383 79.750 L 203.445 80.250 205.595 80.250 C 208.022 80.250,207.964 80.286,207.756 78.897 C 207.670 78.323,207.577 78.167,207.323 78.167 C 207.090 78.167,207.000 78.051,207.000 77.750 C 207.000 77.453,206.910 77.333,206.686 77.333 C 206.121 77.333,206.112 75.930,206.676 75.783 C 207.186 75.649,207.177 70.667,206.667 70.667 C 206.444 70.667,206.333 70.556,206.333 70.333 C 206.333 70.091,206.222 70.000,205.928 70.000 C 205.635 70.000,205.508 69.896,205.470 69.625 C 205.418 69.258,198.614 68.941,198.266 69.289 M208.208 69.279 C 207.855 69.352,207.833 69.439,207.833 70.762 L 207.833 72.167 208.917 72.167 L 210.000 72.167 210.000 75.986 C 210.000 80.759,209.811 80.333,211.934 80.333 L 213.667 80.333 213.667 76.250 L 213.667 72.167 215.173 72.167 L 216.680 72.167 216.631 70.708 L 216.583 69.250 212.583 69.226 C 210.383 69.212,208.415 69.236,208.208 69.279 M217.538 69.313 C 217.367 69.422,217.267 79.515,217.431 80.042 C 217.515 80.309,217.858 80.333,221.511 80.333 L 225.500 80.333 225.500 78.500 L 225.500 76.667 224.958 76.654 C 224.660 76.646,224.510 76.603,224.625 76.556 C 224.773 76.497,224.833 75.969,224.833 74.736 L 224.833 73.000 223.000 73.000 L 221.167 73.000 221.167 72.583 L 221.167 72.167 223.333 72.167 L 225.500 72.167 225.500 70.675 L 225.500 69.183 221.600 69.196 C 219.455 69.204,217.627 69.256,217.538 69.313 M230.285 69.278 C 230.024 69.350,229.993 69.531,230.035 70.722 L 230.083 72.083 231.542 72.131 L 233.000 72.180 233.000 76.262 L 233.000 80.345 234.792 80.297 L 236.583 80.250 236.628 76.208 L 236.673 72.167 237.753 72.167 L 238.833 72.167 238.833 70.689 L 238.833 69.211 234.708 69.204 C 232.440 69.200,230.449 69.233,230.285 69.278 M239.958 69.287 C 239.688 69.353,239.667 69.757,239.667 74.848 L 239.667 80.339 244.042 80.294 L 248.417 80.250 248.417 78.500 L 248.417 76.750 247.667 76.650 C 247.254 76.595,247.081 76.539,247.281 76.525 C 247.715 76.495,247.888 75.689,247.803 74.083 L 247.750 73.083 245.542 73.037 L 243.333 72.990 243.333 72.583 L 243.333 72.175 245.875 72.129 L 248.417 72.083 248.417 70.753 L 248.417 69.422 247.750 69.308 C 247.039 69.186,240.448 69.168,239.958 69.287 M249.333 74.770 L 249.333 80.345 251.125 80.297 L 252.917 80.250 252.965 78.792 C 252.991 77.990,253.083 77.333,253.169 77.333 C 253.353 77.333,253.858 78.062,253.820 78.272 C 253.751 78.653,253.862 78.833,254.167 78.833 C 254.389 78.833,254.500 78.944,254.500 79.167 C 254.500 79.389,254.611 79.500,254.833 79.500 C 255.079 79.500,255.167 79.611,255.167 79.922 L 255.167 80.345 256.958 80.297 L 258.750 80.250 258.800 79.208 C 258.845 78.254,258.821 78.167,258.508 78.167 C 258.242 78.167,258.167 78.059,258.167 77.680 C 258.167 76.977,258.008 76.667,257.649 76.667 C 257.423 76.667,257.333 76.548,257.333 76.250 C 257.333 75.917,257.417 75.833,257.750 75.833 C 258.133 75.833,258.167 75.772,258.167 75.083 C 258.167 74.549,258.265 74.235,258.509 73.991 C 258.928 73.572,258.921 72.250,258.500 72.250 C 258.312 72.250,258.229 71.981,258.167 71.167 C 258.092 70.191,258.045 70.078,257.698 70.029 C 257.486 69.999,257.272 69.868,257.223 69.739 C 257.062 69.321,255.985 69.194,252.625 69.195 L 249.333 69.196 249.333 74.770 M259.735 69.395 C 259.695 69.500,259.682 71.986,259.706 74.918 L 259.750 80.250 261.542 80.297 L 263.333 80.345 263.333 78.839 C 263.333 77.344,263.336 77.333,263.750 77.333 C 263.979 77.333,264.158 77.390,264.147 77.458 C 264.054 78.047,264.204 78.541,264.500 78.618 C 264.712 78.674,264.833 78.846,264.833 79.091 C 264.833 79.364,264.943 79.492,265.208 79.530 C 265.454 79.565,265.583 79.698,265.583 79.917 C 265.583 80.535,269.827 80.486,269.839 79.867 C 269.843 79.621,269.877 79.627,270.096 79.917 C 270.334 80.232,270.573 80.253,274.590 80.300 L 278.833 80.349 278.833 78.508 L 278.833 76.667 278.208 76.662 C 277.703 76.657,277.639 76.624,277.875 76.487 C 278.122 76.343,278.167 76.062,278.167 74.658 L 278.167 73.000 275.917 73.000 L 273.667 73.000 273.667 72.583 L 273.667 72.167 276.250 72.167 L 278.833 72.167 278.833 70.768 C 278.833 69.041,279.177 69.163,274.393 69.190 C 269.447 69.217,270.027 68.523,270.023 74.424 C 270.022 77.143,269.979 79.410,269.927 79.462 C 269.875 79.513,269.833 79.431,269.833 79.278 C 269.833 79.125,269.730 79.000,269.605 79.000 C 269.466 79.000,269.333 78.732,269.267 78.317 C 269.189 77.831,269.062 77.608,268.829 77.547 C 268.618 77.492,268.500 77.319,268.500 77.064 C 268.500 76.778,268.407 76.667,268.167 76.667 C 267.983 76.667,267.833 76.598,267.833 76.514 C 267.833 76.172,268.049 75.833,268.268 75.833 C 268.396 75.833,268.500 75.688,268.500 75.511 C 268.500 75.334,268.641 75.144,268.813 75.090 C 269.494 74.874,269.572 71.973,268.917 71.266 C 268.688 71.018,268.500 70.633,268.500 70.408 C 268.500 70.084,268.414 70.000,268.083 70.000 C 267.786 70.000,267.667 69.910,267.667 69.686 C 267.667 69.249,267.367 69.216,263.327 69.209 C 260.825 69.205,259.788 69.258,259.735 69.395 M280.983 69.485 C 280.836 69.631,280.584 69.956,280.422 70.208 C 280.260 70.460,280.024 70.667,279.897 70.667 C 279.510 70.667,279.568 74.255,279.958 74.425 C 280.119 74.495,280.299 74.544,280.358 74.532 C 280.417 74.521,280.427 74.659,280.380 74.839 C 280.311 75.103,280.379 75.167,280.731 75.167 C 281.056 75.167,281.167 75.252,281.167 75.500 C 281.167 75.733,281.054 75.835,280.792 75.839 C 280.199 75.847,279.812 76.252,279.717 76.965 C 279.653 77.439,279.552 77.618,279.356 77.603 C 278.876 77.568,278.899 78.470,279.383 78.654 C 279.606 78.739,279.832 78.922,279.885 79.061 C 279.939 79.201,280.249 79.365,280.575 79.426 C 280.921 79.491,281.167 79.635,281.167 79.773 C 281.167 80.477,286.204 80.577,286.303 79.875 C 286.348 79.561,286.460 79.500,286.994 79.500 C 287.665 79.500,287.833 79.316,287.833 78.581 C 287.833 78.336,287.958 78.150,288.167 78.083 C 288.657 77.928,288.680 75.167,288.190 75.167 C 287.960 75.167,287.842 74.984,287.732 74.458 C 287.593 73.796,287.544 73.747,286.975 73.699 C 286.539 73.663,286.344 73.557,286.283 73.324 C 286.215 73.066,286.050 73.000,285.474 72.998 C 284.462 72.995,284.044 72.854,283.948 72.485 C 283.833 72.045,284.429 72.057,284.705 72.500 C 285.061 73.069,287.447 72.993,287.671 72.406 C 288.027 71.470,287.879 70.000,287.428 70.000 C 287.135 70.000,287.008 69.896,286.970 69.625 C 286.899 69.127,281.472 69.001,280.983 69.485 M288.500 70.685 L 288.500 72.167 289.664 72.167 L 290.827 72.167 290.872 76.208 L 290.917 80.250 292.667 80.250 L 294.417 80.250 294.461 76.208 L 294.506 72.167 295.920 72.167 L 297.333 72.167 297.333 70.675 L 297.333 69.183 292.917 69.194 L 288.500 69.204 288.500 70.685 M298.167 74.765 L 298.167 80.345 299.958 80.297 L 301.750 80.250 301.798 79.066 C 301.846 77.908,301.856 77.884,302.257 77.961 C 302.556 78.018,302.667 78.146,302.667 78.436 C 302.667 78.722,302.760 78.833,303.000 78.833 C 303.257 78.833,303.333 78.944,303.333 79.321 C 303.333 80.226,303.645 80.349,305.809 80.297 L 307.750 80.250 307.750 79.250 C 307.750 78.340,307.716 78.245,307.375 78.197 C 307.104 78.158,307.000 78.032,307.000 77.738 C 307.000 77.444,306.909 77.333,306.667 77.333 C 306.383 77.333,306.333 77.222,306.333 76.583 C 306.333 75.944,306.383 75.833,306.667 75.833 C 306.986 75.833,307.000 75.722,307.000 73.117 C 307.000 70.143,306.957 70.000,306.062 70.000 C 305.630 70.000,305.513 69.926,305.470 69.625 C 305.417 69.250,305.413 69.250,301.792 69.218 L 298.167 69.186 298.167 74.765 M309.039 69.289 L 308.495 69.355 308.539 74.802 L 308.583 80.250 312.583 80.297 C 317.821 80.358,317.356 80.541,317.297 78.454 C 317.259 77.084,317.201 76.746,317.000 76.728 C 316.862 76.715,316.525 76.688,316.250 76.667 C 315.877 76.638,315.835 76.607,316.083 76.545 C 316.598 76.416,316.661 76.198,316.664 74.542 L 316.667 73.000 314.417 73.000 L 312.167 73.000 312.167 72.583 L 312.167 72.167 314.417 72.167 L 316.667 72.167 316.667 70.687 L 316.667 69.206 313.125 69.215 C 311.177 69.219,309.339 69.253,309.039 69.289 M138.583 72.500 C 138.749 72.683,139.080 72.844,139.317 72.856 C 139.685 72.875,139.696 72.889,139.392 72.949 C 139.195 72.987,138.996 73.165,138.949 73.343 C 138.881 73.604,138.717 73.667,138.099 73.667 L 137.333 73.667 137.333 72.917 C 137.333 72.053,137.983 71.837,138.583 72.500 M180.548 72.500 C 180.600 72.699,180.776 72.833,180.984 72.833 C 181.356 72.833,181.394 72.986,181.229 73.813 C 181.132 74.301,181.079 74.333,180.396 74.333 L 179.667 74.333 179.667 73.250 C 179.667 72.115,180.306 71.572,180.548 72.500 M191.667 72.399 C 191.667 72.668,192.022 72.833,192.597 72.833 C 192.993 72.833,193.000 72.858,193.000 74.333 C 193.000 75.565,192.955 75.833,192.746 75.833 C 192.607 75.833,192.407 76.021,192.303 76.250 C 192.130 76.631,192.022 76.667,191.057 76.667 C 190.041 76.667,190.000 76.651,190.000 76.250 C 190.000 76.021,189.944 75.842,189.875 75.853 C 189.405 75.927,189.333 75.783,189.333 74.769 C 189.333 73.846,189.377 73.694,189.667 73.618 C 189.866 73.566,190.000 73.391,190.000 73.182 C 190.000 72.944,190.106 72.833,190.333 72.833 C 190.556 72.833,190.667 72.722,190.667 72.500 C 190.667 72.241,190.778 72.167,191.167 72.167 C 191.483 72.167,191.667 72.252,191.667 72.399 M202.667 72.500 C 202.667 72.722,202.778 72.833,203.000 72.833 C 203.244 72.833,203.333 72.944,203.333 73.250 C 203.333 73.633,203.272 73.667,202.583 73.667 L 201.833 73.667 201.833 72.917 C 201.833 72.228,201.867 72.167,202.250 72.167 C 202.556 72.167,202.667 72.256,202.667 72.500 M254.000 72.328 C 254.000 72.417,254.206 72.601,254.458 72.738 C 254.710 72.875,254.823 72.990,254.708 72.993 C 254.594 72.997,254.500 73.150,254.500 73.333 C 254.500 73.617,254.389 73.667,253.750 73.667 L 253.000 73.667 253.000 72.917 C 253.000 72.194,253.019 72.167,253.500 72.167 C 253.775 72.167,254.000 72.239,254.000 72.328 M264.833 72.500 C 264.833 72.744,264.944 72.833,265.250 72.833 C 265.694 72.833,265.797 73.136,265.467 73.467 C 265.357 73.577,264.832 73.667,264.300 73.667 L 263.333 73.667 263.333 72.917 L 263.333 72.167 264.083 72.167 C 264.722 72.167,264.833 72.216,264.833 72.500 M302.667 72.432 C 302.667 72.578,302.817 72.737,303.000 72.785 C 303.741 72.979,303.416 73.667,302.583 73.667 L 301.833 73.667 301.833 72.917 C 301.833 72.228,301.867 72.167,302.250 72.167 C 302.520 72.167,302.667 72.260,302.667 72.432 M170.057 76.201 C 170.180 76.670,170.066 76.803,169.924 76.356 C 169.865 76.172,169.652 75.989,169.450 75.950 C 169.132 75.888,169.141 75.876,169.522 75.856 C 169.845 75.839,169.987 75.931,170.057 76.201 " stroke="none" fill="#045c7c" fill-rule="evenodd"></path><path id="path2" d="" stroke="none" fill="#0c5c7c" fill-rule="evenodd"></path><path id="path3" d="" stroke="none" fill="#f86050" fill-rule="evenodd"></path><path id="path4" d="M330.746 16.000 C 330.746 22.829,330.766 25.623,330.792 22.208 C 330.817 18.794,330.817 13.206,330.792 9.792 C 330.766 6.377,330.746 9.171,330.746 16.000 M170.720 56.500 C 170.720 57.096,170.750 57.340,170.787 57.042 C 170.824 56.744,170.824 56.256,170.787 55.958 C 170.750 55.660,170.720 55.904,170.720 56.500 M292.241 60.417 C 292.240 63.167,292.263 64.315,292.291 62.969 C 292.319 61.622,292.319 59.372,292.291 57.969 C 292.263 56.565,292.241 57.667,292.241 60.417 M160.401 58.500 C 160.401 60.012,160.426 60.631,160.457 59.875 C 160.488 59.119,160.488 57.881,160.457 57.125 C 160.426 56.369,160.401 56.987,160.401 58.500 M305.539 56.333 C 305.539 56.654,305.573 56.785,305.615 56.625 C 305.657 56.465,305.657 56.202,305.615 56.042 C 305.573 55.881,305.539 56.012,305.539 56.333 M357.406 60.333 C 357.406 62.854,357.430 63.885,357.458 62.625 C 357.486 61.365,357.486 59.302,357.458 58.042 C 357.430 56.781,357.406 57.813,357.406 60.333 M173.737 61.500 C 173.737 63.379,173.761 64.148,173.791 63.208 C 173.821 62.269,173.821 60.731,173.791 59.792 C 173.761 58.852,173.737 59.621,173.737 61.500 M370.728 60.333 C 370.728 61.296,370.756 61.690,370.790 61.208 C 370.823 60.727,370.823 59.940,370.790 59.458 C 370.756 58.977,370.728 59.371,370.728 60.333 M187.045 60.333 C 187.045 60.746,187.078 60.915,187.118 60.708 C 187.157 60.502,187.157 60.165,187.118 59.958 C 187.078 59.752,187.045 59.921,187.045 60.333 M272.875 62.623 C 273.310 62.657,274.023 62.657,274.458 62.623 C 274.894 62.588,274.537 62.560,273.667 62.560 C 272.796 62.560,272.440 62.588,272.875 62.623 M296.875 62.623 C 297.402 62.656,298.265 62.656,298.792 62.623 C 299.319 62.590,298.887 62.563,297.833 62.563 C 296.779 62.563,296.348 62.590,296.875 62.623 M217.372 70.000 C 217.372 70.321,217.406 70.452,217.448 70.292 C 217.490 70.131,217.490 69.869,217.448 69.708 C 217.406 69.548,217.372 69.679,217.372 70.000 M124.048 70.750 C 124.049 71.208,124.081 71.376,124.120 71.123 C 124.158 70.869,124.157 70.494,124.117 70.289 C 124.078 70.084,124.046 70.292,124.048 70.750 M133.739 74.750 C 133.739 77.133,133.763 78.085,133.791 76.865 C 133.820 75.645,133.820 73.695,133.791 72.532 C 133.763 71.368,133.739 72.367,133.739 74.750 " stroke="none" fill="#046080" fill-rule="evenodd"></path></g></svg>